<?xml version="1.0" standalone="no"?>
<!DOCTYPE svg PUBLIC "-//W3C//DTD SVG 1.1//EN" "http://www.w3.org/Graphics/SVG/1.1/DTD/svg11.dtd" >
<svg xmlns="http://www.w3.org/2000/svg">
<metadata>Generated by IcoMoon</metadata>
<defs>
<font id="bebots" horiz-adv-x="1024">
<font-face units-per-em="1024" ascent="960" descent="-64" />
<missing-glyph horiz-adv-x="1024" />
<glyph unicode="&#x20;" horiz-adv-x="512" d="" />
<glyph unicode="&#xe900;" glyph-name="bebots" d="M613.204 861.082c-93.628-32.967-187.915-73.188-284.838-94.946-70.55-16.484-129.232-65.275-157.584-130.551h-38.242c-14.505 0-25.715-11.868-25.715-25.715v-127.913c0-14.505 11.209-26.374 25.715-26.374h38.242c34.946-79.122 114.067-135.166 206.376-135.166h270.333c91.649 0 171.431 56.045 206.376 135.166h37.583c14.505 0 26.374 11.868 26.374 26.374v127.913c0 13.846-11.868 25.715-26.374 25.715h-37.583c-34.946 79.781-114.727 135.166-206.376 135.166h-34.286v90.331zM871.009 92.941h53.407c1.978-6.593 4.616-10.55 8.571-13.187 3.297-2.637 9.231-3.956 17.143-3.956 5.934 0 11.209 0.659 15.165 3.297 3.297 1.978 5.275 4.616 5.275 8.571 0 6.593-7.912 11.209-23.077 15.165-3.297 0.659-5.275 1.319-7.253 1.978-12.528 3.297-22.418 5.934-29.671 8.571-7.912 2.637-13.187 5.275-16.484 7.912-6.593 4.616-11.868 9.891-15.165 16.484s-4.616 14.505-4.616 23.077c0 16.484 6.593 29.671 19.121 39.561s30.33 14.505 52.748 14.505c21.758 0 38.901-4.616 52.088-13.846 12.528-9.231 19.78-22.418 21.099-39.561h-52.088c-0.659 4.616-3.297 8.571-6.593 11.209-3.956 2.637-8.571 3.297-15.165 3.297-5.934 0-10.55-0.659-13.187-2.637-3.297-1.978-4.616-4.616-4.616-8.571 0-5.934 7.912-10.55 22.418-14.505 1.319 0 2.637-0.659 3.297-0.659 1.978-0.659 5.275-1.319 9.891-2.637 19.78-4.616 32.967-9.231 38.901-13.846 7.912-4.616 13.187-10.55 16.484-17.143 3.956-5.934 5.275-13.846 5.275-22.418 0-19.121-6.593-33.627-19.78-43.517s-32.308-15.165-56.704-15.165c-22.418 0-40.879 5.275-54.067 15.165s-20.44 24.396-22.418 42.858zM757.601 39.533v125.936h-49.451v44.836h153.628v-44.836h-49.451v-125.936h-54.726zM574.302 124.59c0-15.825 2.637-27.692 7.912-35.605 5.275-7.253 13.846-11.209 25.715-11.209 11.209 0 19.78 3.956 25.055 11.209 5.275 7.912 7.912 19.78 7.912 35.605 0 16.484-2.637 28.352-7.912 36.264-5.275 7.253-13.846 11.209-25.055 11.209-11.868 0-20.44-3.956-25.715-11.209-5.275-7.912-7.912-19.78-7.912-36.264zM518.917 125.249c0 27.692 7.912 49.451 23.737 65.935 15.825 15.825 37.583 23.737 64.616 23.737 27.692 0 49.451-7.912 65.275-23.737 15.825-16.484 23.737-38.242 23.737-65.935 0-28.352-7.912-50.111-23.737-65.935-15.825-16.484-37.583-24.396-65.275-24.396-27.033 0-48.792 7.912-64.616 24.396-15.825 15.825-23.737 37.583-23.737 65.935zM398.915 79.754h25.715c8.571 0 14.505 1.319 17.803 3.297 3.956 2.637 5.275 6.593 5.275 12.528 0 5.275-1.978 9.231-5.275 11.868-3.956 2.637-9.891 3.956-18.462 3.956h-25.055v-31.649zM398.915 142.392h23.077c7.253 0 12.528 1.319 15.825 3.297s4.616 5.934 4.616 11.209c0 5.934-1.978 9.891-5.275 11.868s-10.55 3.297-23.077 3.297h-15.165v-29.671zM346.168 39.533v170.771h69.891c15.165 0 25.715 0 32.967-0.659 6.593-1.319 12.528-2.637 17.803-3.956 8.571-3.297 15.165-8.571 19.78-15.165 4.616-7.253 6.593-15.165 6.593-25.055 0-7.912-1.319-14.505-4.616-20.44-3.956-5.934-8.571-10.55-15.825-14.505 9.231-2.637 15.825-7.912 20.44-14.505 3.956-6.593 5.934-14.505 5.934-25.055 0-9.891-1.978-19.121-5.934-26.374-4.616-7.253-10.55-13.187-18.462-17.143-5.275-3.297-11.868-5.275-18.462-5.934-7.253-1.319-18.462-1.978-34.946-1.978h-75.166zM180.011 39.533v170.771h137.145v-40.879h-81.759v-22.418h68.572v-39.561h-68.572v-26.374h85.056v-41.539h-140.441zM53.416 79.754h25.055c8.571 0 14.505 1.319 18.462 3.297 3.297 2.637 5.275 6.593 5.275 12.528 0 5.275-1.978 9.231-5.934 11.868-3.297 2.637-9.231 3.956-17.803 3.956h-25.055v-31.649zM53.416 142.392h22.418c7.912 0 13.187 1.319 15.825 3.297 3.297 1.978 4.616 5.934 4.616 11.209 0 5.934-1.319 9.891-4.616 11.868s-11.209 3.297-23.077 3.297h-15.165v-29.671zM0.009 39.533v170.771h69.891c15.165 0 26.374 0 32.967-0.659 7.253-1.319 13.187-2.637 17.803-3.956 8.571-3.297 15.165-8.571 19.78-15.165 4.616-7.253 7.253-15.165 7.253-25.055 0-7.912-1.978-14.505-5.275-20.44s-8.571-10.55-15.165-14.505c8.571-2.637 15.165-7.912 19.78-14.505s6.593-14.505 6.593-25.055c0-9.891-1.978-19.121-6.593-26.374-3.956-7.253-9.891-13.187-18.462-17.143-5.275-3.297-11.209-5.275-18.462-5.934-6.593-1.319-18.462-1.978-34.286-1.978h-75.825zM647.489 590.749c24.396 0 44.836-20.44 44.836-44.836 0-25.055-20.44-45.495-44.836-45.495-25.055 0-45.495 20.44-45.495 45.495 0 24.396 20.44 44.836 45.495 44.836zM377.157 590.749c24.396 0 44.836-20.44 44.836-44.836 0-25.055-20.44-45.495-44.836-45.495-25.055 0-45.495 20.44-45.495 45.495 0 24.396 20.44 44.836 45.495 44.836zM377.157 681.080h270.333c73.847 0 135.166-61.32 135.166-135.166 0-62.638-42.858-115.386-100.88-131.211-58.682-15.165-102.199-47.473-160.881-67.913v63.957h-143.738c-74.507 0-135.166 60.66-135.166 135.166 0 73.847 60.66 135.166 135.166 135.166z" />
<glyph unicode="&#xe901;" glyph-name="bots" d="M639.365 789.328c-118.214-41.624-237.26-92.407-359.636-119.879-89.076-20.813-163.168-82.416-198.966-164.834h-48.284c-18.314 0-32.467-14.985-32.467-32.467v-161.503c0-18.314 14.153-33.3 32.467-33.3h48.284c44.123-99.9 144.021-170.661 260.57-170.661h341.322c115.716 0 216.448 70.762 260.57 170.661h47.452c18.314 0 33.3 14.985 33.3 33.3v161.503c0 17.482-14.985 32.467-33.3 32.467h-47.452c-44.123 100.732-144.854 170.661-260.57 170.661h-43.289v114.051zM682.655 448.006c30.802 0 56.61-25.807 56.61-56.61 0-31.635-25.807-57.441-56.61-57.441-31.635 0-57.441 25.807-57.441 57.441 0 30.802 25.807 56.61 57.441 56.61zM341.333 448.006c30.802 0 56.61-25.807 56.61-56.61 0-31.635-25.807-57.441-56.61-57.441-31.635 0-57.441 25.807-57.441 57.441 0 30.802 25.807 56.61 57.441 56.61zM341.333 562.058h341.322c93.239 0 170.661-77.422 170.661-170.661 0-79.087-54.112-145.686-127.372-165.666-74.092-19.147-129.037-59.94-203.127-85.747v80.751h-181.484c-94.072 0-170.661 76.59-170.661 170.661 0 93.239 76.59 170.661 170.661 170.661z" />
<glyph unicode="&#xe902;" glyph-name="abou" d="M361.065 534.344c6.231 2.993 22.456 9.676 30.962 9.676 28.144 0 32.019 2.973 40.197-13.979 14.472-29.979 7.595-32.593-2.275-72.319-3.997-16.081-7.462-30.153-12.084-45.968-20.591-70.464-52.384-175.406 68.978-175.406 23.861 0 89.487 21.349 95.79 26.116 3.781 2.849 10.188 22.64 10.638 28.063-7.574-3.638-23.942-9.676-34.827-9.676-66.302 0-41.468 45.322-21.699 122.325 10.086 39.286 43.324 136.265-4.54 168.794-35.146 23.881-82.229 18.582-120.592 6.652l-44.737-15.241c-0.247-11.151-4.92-18.459-5.801-29.026zM492.008 925.239h38.753c64.499-2.142 128.474-15.005 186.65-38.425 66.938-26.934 89.732-45.117 140.169-84.3 40.597-31.547 92.992-100.729 111.695-143.726 21.237-48.807 38.116-100.299 38.116-157.326 0-87.836-10.956-130.268-49.002-206.431l-21.79-36.262c-7.328-10.802-16.101-22.076-24.465-31.66-15.784-18.079-36.805-42.002-55.684-56.556l-32.603-25.449c-27.766-20.478-76.95-47.504-109.379-58.974-14.38-5.084-26.955-10.013-41.612-14.503-72.934-22.363-158.156-28.944-235.486-18.265-30.082 4.151-34.571 9.379-51.143 1.118-34.725-17.32-98.167-39.911-137.646-52.025-16.204-4.971-30.41-9.881-47.742-14.184-44.339-11.008-108.581-24.978-158.721-12.812-12.986 3.147-15.291 5.913-21.637 7.389 0 10.649-0.667 10.249 4.284 17.003 22.835 31.127 102.206 69.572 132.564 140.281 16.306 37.983 14.923 24.752-19.289 58.963-31.424 31.424-49.914 55.602-72.451 95.902-14.472 25.879-24.28 49.831-33.751 80.426-13.939 45.056-15.229 78.192-15.229 126.035 0 50.385 13.508 96.999 30.666 139.615 18.346 45.567 55.459 100.648 89.773 134.694l61.802 52.364c40.248 27.221 64.735 41.335 109.113 59.24 57.467 23.184 120.49 35.739 184.015 37.861zM539.095 652.384c15.989 0 34.499 12.197 43.118 20.745 47.485 47.136-10.004 129.735-77.956 101.181-54.434-22.865-47.136-83.674-21.298-104.521 19.075-15.383 32.409-17.392 56.145-17.392z" />
<glyph unicode="&#xe903;" glyph-name="adjust" d="M86.68 93.741c0 17.443 8.463 37.761 20.581 49.87 19.894 19.894 51.264 25.706 78.079 14.57 68.728-28.548 47.576-134.889-28.209-134.889-17.443 0-37.761 8.463-49.87 20.581-12.14 12.14-20.581 32.415-20.581 49.87zM418.793 711.682c0-61.849 13.238-99.59 46.298-148.951-6.012-4.026-9.075-8.527-14.57-13.609l-61.375-55.374c-5.98-5.779-9.985-7.745-16.154-14.031l-291.871-263.671c-12.911-11.971-34.865-30.904-45.082-43.487-48.21-59.377-47.376-136.717 9.878-194.056 67.228-67.323 159.739-50.64 220.5 22.050l72.373 78.586c5.874 5.779 7.047 7.882 12.161 14.009l158.968 173.158c5.262 5.462 6.55 8.663 12.003 14.168 18.236 18.426 55.585 53.725 34.136 85.39l-35.817 50.736c-9.72 14.59-42.779 58.343-43.075 71.656 14.76-0.328 51.908-27.787 66.034-36.63 21.913-13.704 43.064-26.678 64.914-39.758 68.981-41.279 83.404-58.479 172.988-58.479 52.172 0 99.473 24.131 134.044 51.147 58.67 45.843 81.787 96.167 95.966 169.734 9.541 49.51 11.537 101.65 11.537 157.541 0 32.098-37.994-12.838-45.79-20.634-15.552-15.552-31.549-30.302-46.32-46.276-4.522-4.892-5.22-7.184-9.995-12.14l-34.263-34.18c-24.364-24.364-27.269-29.689-70.947-29.689-14.865 0-24.934 2.324-38.141 4.131-12.108 1.648-24.279 3.878-36.376 5.896-10.586 1.764-25.241 4.955-34.453 7.819-33.915 10.534-35.32 16.462-45.453 85.39-3.561 24.206-8.97 53.936-6.847 76.082 2.874 29.911 9.434 30.175 31.929 52.669 14.919 14.919 28.358 28.358 43.277 43.277s28.358 28.358 43.277 43.277l32.003 32.403c4.195 5.441 4.734 8.157 4.734 17.412-37.413 8.717-149.987-5.642-179.665-11.559-39.684-7.914-79.093-23.159-106.183-42.769-56.293-40.761-104.651-115.543-104.651-191.235z" />
<glyph unicode="&#xe904;" glyph-name="admin" d="M570.565 191.415c-12.888-3.001-34.038-21.327-46.36-24.221 0.565-6.743 11.617-25.916 16.454-37.991 5.402-13.593 9.745-26.022 14.512-41.946 10.875-36.297 15.394-68.921 15.394-109.632 0-17.23-97.168-14.617-121.001-2.013 0 49.855 12.146 103.629 30.259 149.248 3.99 10.098 17.442 33.896 18.149 42.335-12.746 2.966-35.308 21.15-48.408 24.221 0.6 26.269 57.976 51.621 60.801 51.798 3.672 0.212 59.6-23.763 60.2-51.798zM294.278 727.888c0-54.304 13.841-78.49 14.123-90.743-15.571-4.167-12.111-29.235-12.111-42.37 0-24.575 9.286-49.361 16.948-67.757 3.53-8.544 11.369-19.949 17.301-25.069 15.465-13.311 17.442-4.731 21.503-20.797 2.966-11.617 5.896-21.997 10.205-32.165 8.156-19.208 17.513-38.345 29.659-55.081 4.802-6.568 15.324-17.69 15.324-27.046 0-27.153-19.384-53.845-44.136-58.718-25.704-5.084-55.928-12.958-80.326-22.527-65.214-25.634-80.115-32.342-134.877-74.889-19.596-15.217-51.268-54.763-51.268-87.918 0-81.492-13.346-111.256 61.931-143.775 51.479-22.244 100.169-26.94 155.003-34.567 8.544-1.201 21.75-2.79 29.129-3.143 166.055-7.874 302.485-13.665 466.139 34.038 31.177 9.074 67.015 21.891 93.391 39.687 6.991 4.731 11.44 9.392 16.736 15.536 12.993 15.006 8.616 46.465 8.616 74.077 0 74.289-63.625 123.755-123.014 153.308-39.545 19.631-79.444 35.379-125.026 46.395-9.039 2.189-19.279 3.495-28.070 6.214-7.874 2.436-16.913 6.355-22.739 11.581-31.565 28.317 7.344 71.429 16.418 87.141 8.579 14.759 21.29 40.534 26.552 58.153 10.133 33.754 9.498 13.311 34.461 50.244 23.515 34.85 21.75 54.446 21.75 93.214 0 35.626-13.453 13.135-6.214 46.501 16.771 77.148 12.499 258.068-108.75 258.068-11.192 0-11.969-2.048-22.174-2.048-3.637 13.628-28.952 28.212-42.935 33.754-62.531 24.822-129.123 13.029-179.437-31.248-43.747-38.486-74.112-120.649-74.112-188.052z" />
<glyph unicode="&#xe905;" glyph-name="adult" d="M626.464-25.921v277.405l21.926 4.414c18.96 3.919 35.695 14.405 47.594 29.022 11.616 14.229 18.571 32.447 18.571 52.253v224.48c0 22.808-9.321 43.497-24.362 58.503-15.006 15.041-35.73 24.362-58.433 24.362h-40.426l-12.887 51.266c22.455 12.075 41.167 30.045 54.196 51.83 12.534 20.866 19.737 45.546 19.737 71.955 0 38.838-15.676 73.897-41.062 99.282-25.456 25.456-60.516 41.132-99.353 41.132-38.696 0-73.826-15.676-99.177-41.132-25.456-25.386-41.167-60.445-41.167-99.282 0-26.41 7.238-51.089 19.737-71.955 13.028-21.784 31.811-39.755 54.266-51.83l-12.852-51.266h-40.462c-22.773 0-43.497-9.321-58.538-24.362-15.006-15.006-24.326-35.695-24.326-58.503v-224.48c0-19.807 7.026-38.061 18.641-52.253 11.898-14.617 28.669-25.103 47.664-29.022l21.855-4.414v-277.405c0-10.415 4.166-19.983 11.122-26.868s16.453-11.192 26.939-11.192h152.772c10.38 0 19.983 4.307 26.833 11.192 6.955 6.885 11.192 16.453 11.192 26.868z" />
<glyph unicode="&#xe906;" glyph-name="alert" d="M411.901-28.609v128.058c0 19.489 15.888 35.378 35.378 35.378h129.445c19.489 0 35.378-15.888 35.378-35.378v-128.058c0-19.489-15.888-35.378-35.378-35.378h-129.445c-19.489 0-35.378 15.888-35.378 35.378zM460.603 226.596h102.806c26.787 0 48.702 21.957 48.702 48.671v636.041c0 26.713-21.915 48.671-48.702 48.671h-102.806c-26.787 0-48.702-21.957-48.702-48.671v-636.041c0-26.713 21.915-48.671 48.702-48.671z" />
<glyph unicode="&#xe907;" glyph-name="arrowd" d="M10.622 640.793l77.493 77.493c14.147 14.147 37.243 14.147 51.426 0l372.466-372.466 372.466 372.466c14.147 14.147 37.243 14.147 51.391 0l77.493-77.493c14.147-14.147 14.147-37.243 0-51.426l-475.672-475.636c-14.147-14.182-37.243-14.182-51.391 0l-475.672 475.636c-14.147 14.182-14.147 37.278 0 51.426z" />
<glyph unicode="&#xe908;" glyph-name="arrowff" d="M530.284 905.394l-66.737-66.737c-14.176-14.14-14.176-37.222 0-51.398l339.247-339.247-339.247-339.247c-14.176-14.176-14.176-37.258 0-51.398l66.737-66.737c14.14-14.176 37.222-14.176 51.398 0l431.683 431.683c14.14 14.14 14.14 37.258 0 51.398l-431.683 431.683c-14.176 14.176-37.258 14.176-51.398 0zM77.373 905.394l-66.737-66.737c-14.14-14.14-14.14-37.222 0-51.398l339.247-339.247-339.247-339.247c-14.14-14.176-14.14-37.258 0-51.398l66.737-66.737c14.176-14.176 37.258-14.176 51.398 0l431.683 431.683c14.176 14.14 14.176 37.258 0 51.398l-431.683 431.683c-14.14 14.176-37.258 14.176-51.398 0z" />
<glyph unicode="&#xe909;" glyph-name="arrowl" d="M704.775 949.362l77.502-77.502c14.158-14.158 14.158-37.251 0-51.409l-372.467-372.467 372.467-372.467c14.158-14.158 14.158-37.251 0-51.373l-77.502-77.502c-14.158-14.158-37.215-14.158-51.373 0l-475.672 475.672c-14.158 14.123-14.158 37.215 0 51.373l475.672 475.672c14.158 14.158 37.215 14.158 51.373 0z" />
<glyph unicode="&#xe90a;" glyph-name="arrowr" d="M319.225 949.362l-77.502-77.502c-14.158-14.158-14.158-37.251 0-51.409l372.467-372.467-372.467-372.467c-14.158-14.158-14.158-37.251 0-51.373l77.502-77.502c14.158-14.158 37.215-14.158 51.373 0l475.672 475.672c14.158 14.123 14.158 37.215 0 51.373l-475.672 475.672c-14.158 14.158-37.215 14.158-51.373 0z" />
<glyph unicode="&#xe90b;" glyph-name="arrowrw" d="M493.724 905.398l66.742-66.705c14.162-14.162 14.162-37.256 0-51.418l-339.264-339.264 339.264-339.264c14.162-14.162 14.162-37.256 0-51.418l-66.742-66.742c-14.162-14.125-37.256-14.125-51.418 0l-431.714 431.714c-14.125 14.162-14.125 37.256 0 51.418l431.714 431.678c14.162 14.162 37.256 14.162 51.418 0zM946.644 905.398l66.742-66.705c14.125-14.162 14.125-37.256 0-51.418l-339.3-339.264 339.3-339.264c14.125-14.162 14.125-37.256 0-51.418l-66.742-66.742c-14.162-14.125-37.256-14.125-51.418 0l-431.714 431.714c-14.162 14.162-14.162 37.256 0 51.418l431.714 431.678c14.162 14.162 37.256 14.162 51.418 0z" />
<glyph unicode="&#xe90c;" glyph-name="arrowu" d="M10.638 303.225l77.502-77.502c14.158-14.158 37.251-14.158 51.409 0l372.467 372.467 372.467-372.467c14.158-14.158 37.251-14.158 51.373 0l77.502 77.502c14.158 14.158 14.158 37.215 0 51.373l-475.672 475.672c-14.123 14.158-37.215 14.158-51.373 0l-475.672-475.672c-14.158-14.158-14.158-37.215 0-51.373z" />
<glyph unicode="&#xe90d;" glyph-name="bath" d="M687.991 532.009c0-13.199 8.835-24.925 19.979-25.211 26.546-0.699 31.398 47.213 0.021 47.213-12.701 0-20-12.892-20-22.002zM613.988 532.009c0 13.379-5.233 22.002-20 22.002-16.758 0-30.264-27.192-18.294-40.264 15.826-17.298 38.294 1.78 38.294 18.262zM687.991 682.007c0-13.008 6.737-24.915 20.212-25.402 28.231-1.028 29.258 47.404-0.212 47.404-12.701 0-20-12.892-20-22.002zM803.985 536.002c0-43.824 55.624-33.103 40.095 2.044-11.388 25.794-40.095 17.065-40.095-2.044zM649.983 684.009c0 17.373-17.341 23.22-28.305 18.305-3.263-1.462-1.748-0.89-3.57-2.436-25.889-22.002-2.998-54.162 18.178-40.275 6.557 4.301 13.686 14.121 13.686 24.406zM767.979 684.009c0-32.902 44.004-35.752 44.004-7.998 0 29.788-44.004 39.745-44.004 7.998zM787.979 618.003c0-10.053-0.191-19.449 3.898-28.093 2.352-4.979 1.515-3.591 5.169-6.833 15.508-13.782 32.934 2.574 32.934 12.934 0 14.544-2.924 29.978-13.358 34.735-17.733 8.093-28.644-7.161-28.644-12.733zM687.98 603.999c0-34.279 42.002-36.377 42.002 2.002 0 36.747-42.002 38.368-42.002-2.002zM587.982 596.001c0-16.43 28.241-28.029 38.114-6.112 4.227 9.375 9.883 33.315-6.885 41.504-5.413 2.648-11.907 2.055-17.871-0.667-10.445-4.767-13.358-20.19-13.358-34.735zM815.531 960h23.4c21.769-1.335 43.114-6.419 61.758-15.296 14.438-6.885 35.105-21.398 44.491-33.516 25.423-32.839 39.555-68.537 40.879-113.123 2.998-101.397-0.064-208.069-0.064-310.059 10.943-0.911 21.048-6.313 27.372-12.627 6.758-6.758 10.625-16.536 10.625-29.375v-32.839c-1.568-21.875-8.909-43.167-37.997-43.167v-102.001c0-79.893-35.667-141.439-93.992-180.008-13.337-8.813-42.764-26.387-62.012-27.987 4.799-20.582 12.669-40.709 35.667-44.332 5.402-0.847 11.536-1.525 16.282-3.718l10.879-7.119c16.621-14.64 17.743-40.529 2.775-56.44-9.777-10.402-17.902-12.15-27.669-12.394h-9.936c-56.705 0-103.6 65.19-107.996 117.996h-475.989c-2.436-29.279-19.534-61.641-34.586-79.416-22.267-26.303-47.658-38.58-83.42-38.58-29.618 0-46.037 32.701-34.364 56.366 16.070 32.574 43.887 11.811 60.815 39.184 5.265 8.527 9.068 17.807 11.546 28.453-27.531 6.419-57.15 24.142-76.312 39.682-95.158 77.17-79.681 162.688-79.681 268.312-21.377 4.979-37.997 15.752-37.997 42.002v39.12c0.646 7.235 2.034 13.633 4.809 18.072 9.513 15.18 20.508 20.815 41.186 20.815h859.998v304c0 23.019-7.648 48.993-17.648 62.361-18.654 24.957-42.838 25.635-70.359 25.635-30.868 0-60.052-24.618-62.001-47.997 9.693-2.256 21.62-11.335 28.527-17.479 12.807-11.398 9.714-7.51 21.229-22.765 11.652-15.413 22.245-41.355 22.245-67.753h-237.994c0 26.419 12.966 58.283 25.529 72.467 13.358 15.063 36.006 37.669 58.463 39.533 0.318 14.216 11.049 38.898 17.108 48.898 17.701 29.29 35.699 49.173 69.152 62.849 17.065 6.981 36.027 11.070 55.296 12.256z" />
<glyph unicode="&#xe90e;" glyph-name="bed" d="M0.020 801.078h99.094v-413.218h356.569v325.787h333.572c129.092 0 234.722-105.63 234.722-234.711v-384.024h-99.105v149.292h-825.758v-149.292h-99.094v706.156zM281.254 718.784c-76.499 0-138.52-62.020-138.52-138.52s62.020-138.52 138.52-138.52c76.499 0 138.52 62.020 138.52 138.52s-62.020 138.52-138.52 138.52z" />
<glyph unicode="&#xe90f;" glyph-name="bfav" d="M511.998 759.023c64.861 78.472 147.135 112.93 226.719 113.302 46.397 0.212 91.777-11.26 132.168-32.424 40.444-21.196 75.92-52.064 102.476-90.622 51.704-75.082 69.923-178.839 25.486-296.315-37.138-98.143-140.112-178.808-273.074-282.925-47.763-37.404-99.573-77.974-154.751-124.572-17.182-14.523-38.113-21.79-59.024-21.79s-41.842 7.267-59.024 21.79c-55.178 46.598-106.988 87.169-154.751 124.572-132.962 104.128-235.935 184.782-273.074 282.925-44.437 117.465-26.228 221.232 25.486 296.315 26.556 38.547 62.032 69.436 102.476 90.622 40.391 21.165 85.76 32.637 132.168 32.424 79.584-0.37 161.859-34.83 226.719-113.302zM738.929 818.989c-72.424-0.328-148.258-36.301-204.867-119.509l-22.065-32.435-22.065 32.435c-56.609 83.207-132.432 119.17-204.867 119.509-37.605 0.17-74.447-9.152-107.285-26.365-32.796-17.182-61.608-42.298-83.228-73.684-42.446-61.618-56.948-147.972-19.417-247.163 31.874-84.245 129.656-160.832 255.913-259.706 49.066-38.421 102.285-80.103 156.425-125.823 7.118-6.017 15.815-9.025 24.512-9.025s17.393 3.019 24.512 9.025c54.15 45.719 107.359 87.402 156.425 125.823 126.257 98.874 224.039 175.46 255.913 259.706 37.53 99.192 23.029 185.545-19.417 247.163-21.631 31.387-50.443 56.492-83.239 73.684-32.838 17.213-69.68 26.535-107.285 26.365z" />
<glyph unicode="&#xe910;" glyph-name="bstar" d="M0.011 553.98c0 17.372 9.152 29.32 20.475 36.184 11.694 7.086 29.914 8.019 46.311 10.338l243.641 35.422c36.248 5.021 26.757 0.159 35.803 18.759 34.098 70.155 79.328 155.796 110.513 223.113 10.911 23.558 20.454 58.058 53.144 58.058 38.186 0 43.472-29.151 58.027-59.478 12.277-25.581 24.373-48.673 37.095-74.106 12.828-25.645 25.031-47.963 36.46-74.741 10.752-25.2 24.946-49.149 36.958-74.254 4.873-10.18 3.008-12.468 14.734-14.65 8.644-1.61 15.571-1.97 24.098-3.178l241.777-35.189c24.246-3.358 64.933-5.36 64.933-46.28 0-19.374-12.404-28.134-22.562-38.292l-58.715-58.789c-5.985-5.752-9.692-7.415-15.815-13.569-22.255-22.371-53.482-56.278-75.292-73.683-5.889-4.693-58.439-56.988-58.439-59.064 0-15.815 34.384-206.27 38.663-232.010 3.252-19.533 11.694-59.054 11.694-76.436 0-26.068-18.601-41.958-44.065-41.958-12.033 0-94.052 45.982-109.814 53.853-13.358 6.663-22.594 12.404-35.665 18.887l-53.874 27.954c-6.821 3.389-10.646 6.144-17.457 9.82-9.173 4.937-66.521 36.047-72.051 35.294l-232.921-121.328c-6.821-3.676-10.635-6.43-17.457-9.82-9.342-4.629-25.285-14.671-37.784-14.671-22.922 0-41.968 17.223-41.968 39.86 0 18.007 2.637 26.248 5.392 42.868 2.256 13.59 4.629 25.634 6.599 37.466l26.365 154.080c15.2 91.213 21.969 67.2-17.912 107.081l-30.326 28.42c-15.624 13.060-55.146 56.469-74.551 74.424-5.995 5.54-9.607 7.351-15.783 13.59-10.222 10.349-19.056 19.098-29.353 29.395-21.048 21.048-50.887 43.715-50.887 66.617zM960.634 547.973c-3.666 0.466-6.97 0.847-9.057 1.144l-241.777 35.189c-8.75 1.271-17.34 1.886-26.122 3.517-16.832 3.136-31.015 9.893-41.618 23.876-5.318 7.001-6.779 12.002-10.253 19.268-12.277 25.656-26.662 50.018-37.879 76.277-10.487 24.575-23.209 48.037-35.157 71.913-12.478 24.956-25.38 49.7-37.466 74.858-2.097 4.374-5.763 13.675-9.321 21.578-3.326-7.33-6.62-15.687-8.4-19.522-34.998-75.536-74.519-149.080-110.915-223.97-8.262-17.012-11.557-27.901-30.411-37.678-13.728-7.108-29.395-7.446-44.425-9.628l-243.641-35.422c-3.051-0.445-7.552-0.879-12.203-1.409 9.046-9.057 20.529-19.204 25.412-24.077 9.862-9.862 19.755-19.681 29.564-29.606 4.099-4.142 9.65-7.849 14.13-11.991 14.025-12.987 27.424-27.287 40.728-41.036 9.82-10.137 21.122-22.69 31.873-31.672l1.122-0.942 32.011-29.999 0.594-0.594c20.126-20.126 40.082-32.604 44.404-63.757 3.209-23.155-8.008-64.678-12.108-88.586l-26.365-154.080c-2.118-12.414-4.492-24.776-6.556-37.201-0.858-5.18-1.865-10.084-2.722-14.967 1.134 0.615 2.192 1.176 3.157 1.652 5.37 2.67 10.572 6.144 15.9 9.015l241.555 125.83 8.93 1.207c21.948 2.977 46.089-10.932 65.198-20.74 12.859-6.599 25.592-13.41 38.314-20.264 5.339-2.871 10.54-6.355 15.91-9.015l0.837-0.424 53.461-27.753c11.694-5.794 23.282-12.712 35.358-18.738 16.958-8.464 33.748-18.028 50.559-26.863 7.457-3.919 17.171-9.321 26.714-14.088-0.677 4.099-1.43 8.071-2.002 11.408-2.277 13.145-4.937 26.227-7.119 39.383-6.62 39.817-14.004 79.603-20.889 119.4-4.237 24.511-8.442 49.033-12.393 73.587-2.267 14.12-6.090 33.346-6.090 47.497 0 27.329 24.596 47.466 42.084 65.028 10.815 10.847 23.94 24.967 35.803 34.426 24.501 19.554 48.524 47.253 70.886 69.731 5.477 5.498 11.429 9.375 16.239 13.993l54.139 54.223z" />
<glyph unicode="&#xe911;" glyph-name="butonoff" d="M556.009 684.005c81.998 0 163.997 0 245.995 0 50.623 0 68.006-1.462 98.311-23.685 6.314-4.629 11.143-8.294 15.709-14.279 5.032-6.589 8.898-10.339 13.326-18.675 6.292-11.864 14.65-30.338 14.65-47.35v-263.992c0-28.982-20.423-63.080-42.54-79.446-30.994-22.933-47.71-24.543-99.455-24.543-81.998 0-163.997 0-245.995 0 1.568 5.847 3.962 7.796 7.15 12.849 3.252 5.148 4.65 7.521 7.108 12.891 4.417 9.671 8.263 18.272 12.309 29.692 6.769 19.067 9.438 49.277 9.438 74.562v211.982c0 50.21-7.426 82.719-32.053 121.943l-3.951 8.050zM0.028 580.005v-263.992c0-51.597 24.819-95.706 58.493-129.496 29.935-30.030 76.406-54.5 135.492-54.5h633.976c78.683 0 148.627 46.926 177.365 108.629 9.269 19.904 18.633 49.193 18.633 77.359v259.989c0 99.169-87.962 185.998-195.998 185.998h-633.976c-105.8 0-193.996-87.199-193.996-183.996z" />
<glyph unicode="&#xe912;" glyph-name="butonon" d="M467.991 684.001c-81.998 0-163.996 0-245.994 0-50.623 0-68.005-1.462-98.311-23.685-6.313-4.629-11.144-8.294-15.709-14.279-5.032-6.589-8.898-10.338-13.325-18.675-6.292-11.864-14.65-30.338-14.65-47.349v-263.991c0-28.982 20.423-63.080 42.54-79.445 30.994-22.933 47.71-24.543 99.455-24.543 81.998 0 163.996 0 245.994 0-1.568 5.847-3.962 7.796-7.15 12.849-3.252 5.148-4.65 7.521-7.108 12.891-4.417 9.671-8.262 18.273-12.309 29.691-6.768 19.067-9.438 49.277-9.438 74.562v211.991c0 50.209 7.425 82.729 32.053 121.943l3.951 8.050zM1023.969 580.002v-263.991c0-51.597-24.819-95.705-58.493-129.496-29.935-30.030-76.405-54.499-135.491-54.499h-633.982c-78.682 0-148.636 46.926-177.364 108.628-9.269 19.904-18.632 49.193-18.632 77.369v259.987c0 99.169 87.961 185.997 195.996 185.997h633.982c105.799 0 193.994-87.199 193.994-183.995z" />
<glyph unicode="&#xe913;" glyph-name="calendar" d="M81.5 55.504v548.217h860.982v-548.217c0-17.571-17.571-35.142-35.142-35.142h-787.184c-21.085 0-35.142 17.571-35.142 35.142zM0.674 768.889v-720.413c0-56.227 52.713-112.455 112.455-112.455h797.726c56.227 0 112.455 52.713 112.455 112.455v720.413c0 59.742-56.227 112.455-115.969 112.455h-80.827c0-38.657 3.514-87.855-7.029-112.455-3.514-7.029-3.514-7.029-7.029-14.057-3.514-3.514-3.514-7.029-10.543-10.543-7.029-7.029-14.057-10.543-24.599-14.057-21.085-7.029-45.684-7.029-63.256 3.514-14.057 7.029-14.057 7.029-21.085 17.571-28.114 28.114-21.085 80.827-21.085 133.54h-316.279c0-66.77 14.057-144.083-73.798-158.14-42.171-7.029-84.341 31.628-84.341 73.798v84.341c-63.256 0-115.969 10.543-161.653-31.628-17.571-14.057-35.142-49.199-35.142-80.827zM352.095 396.383h186.254c-3.514-10.543-147.597-302.223-147.597-302.223h137.054c3.514 7.029 3.514 14.057 7.029 21.085l77.312 189.767c3.514 7.029 7.029 14.057 10.543 21.085 7.029 21.085 42.171 94.884 42.171 108.94v52.713h-316.279v-91.37zM236.126 920v-115.969c0-52.713 80.827-56.227 80.827 3.514v112.455c0 52.713-80.827 52.713-80.827 3.514zM707.031 920v-112.455c0-38.657 42.171-56.227 66.77-31.628 0 0 0 0 0 0 7.029 7.029 10.543 17.571 10.543 28.114v115.969c0 49.199-80.827 49.199-80.827-3.514z" />
<glyph unicode="&#xe914;" glyph-name="cart" d="M720.182 12.021c0-75.532 83.329-94.689 123.195-54.788 27.271 27.271 29.423 74.051-0.635 102.874l-5.362 4.728c-45.652 38.278-117.197 2.963-117.197-52.813zM482.824 16.042c0-21.273 1.446-33.763 14.888-51.508 48.544-64.208 154.452-8.749 123.688 71.37-4.939 12.806-12.030 21.414-22.438 29.881-27.765 22.578-72.746 18.486-95.571-5.926-8.115-8.679-20.568-28.082-20.568-43.817zM0.030 921.305c0-30.376 22.508-42.44 52.248-42.3 29.529 0.142 59.057 0.070 88.586 0.070 76.238 0 76.061 7.55 100.122-78.919 37.925-136.106 83.611-277.117 121.571-413.542 12.736-45.652 27.376-91.373 40.677-138.365 16.44-58.069 32.139-102.415 86.963-136.318 34.115-21.062 64.773-25.471 109.295-25.471h271.578c60.504 0 62.479 48.298 43.887 68.018-19.086 20.251-52.777 12.453-90.138 12.453-43.252 0-246.037-3.352-271.684 3.881-29.282 8.29-61.703 43.675-64.279 74.58 77.79 0 155.581 0 233.371 0 36.372 0 83.894-4.339 110.952 5.679 26.107 9.667 33.021 30.905 40.535 45.969l92.572 199.151c18.874 40.782 57.681 110.742 57.681 149.513 0 46.639-29.282 76.45-74.439 76.45h-583.375c-10.125 0-8.996-1.835-18.098-2.011l-45.687 153.499c-19.757 50.555-55.388 85.87-115.257 85.87h-148.843c-20.568 0-38.243-17.64-38.243-38.207z" />
<glyph unicode="&#xe915;" glyph-name="chat" d="M525.782 131.78c68.599 0 126.753 16.111 181.867 39.734l44.416 22.054c5.349 2.966 8.888 5.73 13.421 8.75 46.831 31.185 81.109 59.034 114.836 106.743 90.325 127.738 79.7 284.988-4.565 398.309-20.020 26.926-39.214 46.629-65.294 67.667l-51.375 37.266c-18.421 11.916-40.274 20.687-59.383 29.257-49.437 22.171-87.009 27.997-140.227 35.030-7.309 0.964-14.29 0.392-21.694 0.466-10.593 0.106-11.207 1.812-20.137 2.182s-12.044-1.684-20.063-2.119c-7.129-0.381-14.957 0.477-22.065-0.096-65.262-5.285-146.487-29.109-201.972-63.938-9.248-5.794-17.382-11.356-26.598-17.722l-37-29.479c-4.936-4.301-7.171-5.232-12.076-10.084l-40.486-46.142c-86.288-114.572-96.988-266.937-7.945-398.214 17.955-26.482 40.592-49.352 63.906-71.067l2.044-1.981c24.766-25.74 8.538-78.196-1.822-104.635-12.383-31.587-26.408-43.844-43.187-65.591-6.599-8.558-10.826-10.953-18.696-17.563-7.065-5.932-11.737-10.751-19.364-16.896-4.989-4.025-16.546-12.722-19.512-16.758l48.198 6.197c52.795 10.688 109.222 31.555 155.364 58.165 101.617 58.589 64.362 64.828 144.051 53.61 25.667-3.601 40.189-3.135 65.357-3.135zM723.56 581.252c34.13 0 61.788-27.669 61.788-61.788 0-34.13-27.658-61.788-61.788-61.788s-61.788 27.669-61.788 61.788c0 34.13 27.658 61.788 61.788 61.788zM511.99 581.252c34.13 0 61.788-27.669 61.788-61.788 0-34.13-27.658-61.788-61.788-61.788s-61.788 27.669-61.788 61.788c0 34.13 27.658 61.788 61.788 61.788zM300.432 581.252c34.13 0 61.788-27.669 61.788-61.788 0-34.13-27.658-61.788-61.788-61.788s-61.788 27.669-61.788 61.788c0 34.13 27.658 61.788 61.788 61.788zM0.011-19.294v10.191c1.938 21.577 15.274 44.712 27.711 58.79l46.365 40.253c40.528 33.028 60.697 49.531 72.984 102.273-10.688 7.15-40.232 43.134-49.902 54.85-46.587 56.364-85.367 150.237-89.107 223.136-8.421 164.241 59.987 291.905 184.748 385.365 49.086 36.768 116.732 68.387 175.84 84.033 72.582 19.205 158.775 25.041 234.302 12.68 15.306-2.511 29.882-5.264 43.727-8.643 26.757-6.535 54.246-14.322 77.856-24.882 12.944-5.784 23.813-9.861 36.28-16.090l34.257-18.125c37.435-19.946 86.098-62.392 116.023-93.481 4.693-4.872 7.404-8.93 11.991-14.194 126.944-145.597 134.623-363.131 20.010-518.484-31.27-42.381-61.692-71.734-103.904-103.576-26.334-19.85-40.115-25.719-64.457-40.294-61.121-36.598-169.241-63.302-248.952-63.302-114.73 0-76.638 19.48-126.912-14.109-100.695-67.264-240.562-119.189-362.856-92.919-8.241 1.769-19.353 6.78-24.48 11.79-7.15 7.002-10.645 15.55-11.535 24.734z" />
<glyph unicode="&#xe916;" glyph-name="check" d="M373.908-22.377c-94.003 65.843-285.013 281.498-345.259 342.835-20.105 20.48-19.831 53.692 0.683 73.83l79.258 77.892c20.48 20.139 53.726 19.831 73.83-0.649l197.325-200.806 444.484 634.846c16.521 23.552 49.22 29.286 72.772 12.834l91.034-63.761c23.518-16.452 29.286-49.186 12.8-72.738l-554.189-791.45c-16.486-23.552-49.186-29.321-72.738-12.834z" />
<glyph unicode="&#xe917;" glyph-name="checked" d="M404.383 81.572c-73.588 51.539-223.051 220.287-270.187 268.276-15.734 16.042-15.53 42.050 0.512 57.785l62.017 60.959c16.042 15.734 42.050 15.53 57.819-0.512l154.378-157.143 347.838 496.789c12.936 18.431 38.535 22.937 56.931 10.069l71.233-49.901c18.431-12.901 22.937-38.466 10.035-56.931l-433.645-619.322c-12.936-18.465-38.535-22.937-56.931-10.069zM117.334 959.988h789.332c32.289 0 61.642-13.174 82.872-34.439 21.264-21.23 34.439-50.584 34.439-82.872v-789.332c0-32.289-13.174-61.642-34.439-82.872-21.23-21.264-50.584-34.439-82.872-34.439h-789.332c-32.289 0-61.642 13.174-82.872 34.439-21.264 21.23-34.439 50.584-34.439 82.872v789.332c0 32.289 13.174 61.642 34.439 82.872 21.23 21.264 50.584 34.439 82.872 34.439zM906.666 895.991h-789.332c-14.608 0-27.954-6.007-37.613-15.7-9.694-9.66-15.7-23.005-15.7-37.613v-789.332c0-14.608 6.007-27.954 15.7-37.613 9.66-9.694 23.005-15.7 37.613-15.7h789.332c14.608 0 27.954 6.007 37.613 15.7 9.694 9.66 15.7 23.005 15.7 37.613v789.332c0 14.608-6.007 27.954-15.7 37.613-9.66 9.694-23.005 15.7-37.613 15.7z" />
<glyph unicode="&#xe918;" glyph-name="chikd" d="M460.8 277.333l-81.92 85.333c-6.827 6.827-17.067 10.24-27.307 10.24s-20.48-3.413-27.307-10.24c-6.827-6.827-10.24-17.067-10.24-27.307s3.413-20.48 10.24-27.307l58.027-58.027 17.067-20.48 20.48-23.893v-215.040c0-10.24 3.413-20.48 10.24-27.307s17.067-10.24 27.307-10.24c10.24 0 20.48 3.413 27.307 10.24s10.24 17.067 10.24 27.307v88.747h27.307v-88.747c0-10.24 3.413-20.48 10.24-27.307s17.067-10.24 27.307-10.24c10.24 0 20.48 3.413 27.307 10.24s10.24 17.067 10.24 27.307v215.040l40.96 44.373 58.027 58.027c6.827 6.827 10.24 17.067 10.24 27.307s-3.413 20.48-10.24 27.307c-6.827 6.827-17.067 10.24-27.307 10.24s-20.48-3.413-27.307-10.24l-81.92-85.333h-102.4zM436.907 376.32c0-20.48 6.827-37.547 20.48-51.2s30.72-20.48 51.2-20.48c20.48 0 37.547 6.827 51.2 20.48s20.48 30.72 20.48 51.2c0 20.48-6.827 37.547-20.48 51.2s-30.72 20.48-51.2 20.48c-20.48 0-37.547-6.827-51.2-20.48s-20.48-30.72-20.48-51.2z" />
<glyph unicode="&#xe919;" glyph-name="clean" d="M97.537 484.719l252.146 60.42c18.622 4.227 41.279 12.541 62.75 14.755 8.994-8.57 18.325-18.696 26.45-26.852l79.878-79.688c14.639-15.56 36.65-37.127 52.074-52.158l52.709-52.741-73.979-315.109c-7.32 4.163-13.865 10.053-20.581 15.295l-64.149 52.995 45.124 127.799-88.406-88.649c-9.883 3.718-91.022 79.582-98.893 91.043 4.152 4.28-0.212-1.176 4.47 5.752l37.508 63.089-69.477-42.021-83.861 86.976 75.494 77.242c8.739 8.432 7.33 6.112 9.301 14.045-19.681-1.864-119.315-44.415-126.602-41.724l-53.196 65.219c-7.574 9.438-11.25 14.745-18.749 24.321zM300.64 434.648c0.636 0.297-1.6 2.055-1.6 1.367v0c0.18-0.159 0.964-1.653 1.6-1.367zM367.998 298.841c0.35 0.35-1.038 1.547-1.038 1.059 0-0.201-0.456 0.456-0.434 0.434 0.085-0.085-2.055-5.011 1.472-1.494zM0.012 515.946v-18.41l29.564-41.004c9.587-13.219 20.994-28.473 30.793-40.453 28.802-35.252 64.276-80.366 94.592-112.832 10.413-11.165 23.547-24.003 33.314-36.735 14.903-19.427 120.82-125.384 140.575-140.977l232.667-189.502h18.41c9.597 6.504 11.821 3.708 18.272 10.551 9.957 10.551 70.462 279.020 78.407 311.009 7.86 31.693 12.552 52.37 19.776 85.577 6.875 31.619 13.060 24.278 43.927 58.418 44.171 48.874-48.567 96.404-61.892 126.062 7.606 13.24 283.595 286.71 329.292 331.834 15.528 15.338 6.557 11.397 16.259 27.732v24.098c-8.464 14.459-4.629 17.711-17.795 30.878-13.166 13.177-16.418 9.332-30.878 17.795h-24.098l-4.205-2.15c-10.042-4.703 2.161 0.996-4.248-1.896-26.238-11.81-154.398-147.12-174.322-167.046-23.198-23.208-163.539-166.844-176.78-174.449-7.532 3.379-3.040 0.519-9.576 6.102l-19.776 19.967c-23.028 23.039-57.549 70.017-98.003 34.447-39.553-34.775-22.361-34.659-61.723-43.567-27.657-6.261-55.029-13.272-82.050-19.829-55.569-13.495-112.197-26.821-168.243-39.881-29.172-6.801-55.58-13.134-84.984-20.327-39.394-9.629-45.432-3.178-67.252-35.4z" />
<glyph unicode="&#xe91a;" glyph-name="close" d="M12.415 868.462l79.11 79.11c16.544 16.544 43.63 16.544 60.174 0l360.293-360.293 360.293 360.293c16.544 16.544 43.62 16.554 60.174 0l79.11-79.11c16.544-16.544 16.544-43.63 0-60.174l-360.293-360.293 360.293-360.293c16.544-16.544 16.554-43.62 0-60.174l-79.11-79.11c-16.544-16.544-43.63-16.544-60.174 0l-360.293 360.293-360.293-360.293c-16.544-16.544-43.62-16.544-60.174 0l-79.11 79.11c-16.544 16.544-16.544 43.63 0 60.174l360.293 360.293-360.293 360.293c-16.544 16.544-16.544 43.62 0 60.174z" />
<glyph unicode="&#xe91b;" glyph-name="condition" d="M149.874 359.612l-144.027-136.316c-3.72-3.517-5.667-7.882-5.804-12.997s1.566-9.585 5.096-13.296l144.037-151.748c5.339-5.624 13.156-7.339 20.37-4.47 7.213 2.881 11.694 9.502 11.694 17.266v74.646c0 10.233 8.357 18.581 18.59 18.581h552.411c19.903-53.261 62.613-91.192 131.443-91.192 68.842 0 140.299 62.815 140.299 140.286 0 77.485-71.458 140.286-140.299 140.286s-111.54-37.931-131.443-91.192h-552.411c-10.233 0-18.59 8.357-18.59 18.59v78.046c0 7.585-4.268 14.067-11.239 17.076-6.961 2.996-14.617 1.631-20.126-3.57zM874.137 851.453l144.027-136.316c3.72-3.517 5.667-7.882 5.804-12.997s-1.566-9.585-5.096-13.296l-144.037-151.748c-5.339-5.624-13.156-7.339-20.37-4.47-7.213 2.881-11.694 9.502-11.694 17.266v74.646c0 10.233-8.357 18.581-18.59 18.581h-552.411c-19.903-53.261-62.613-91.192-131.443-91.192-68.842 0-140.299 62.815-140.299 140.286 0 77.485 71.458 140.286 140.299 140.286s111.54-37.931 131.443-91.192h552.411c10.233 0 18.59 8.357 18.59 18.59v78.046c0 7.585 4.268 14.067 11.239 17.076 6.961 2.996 14.617 1.631 20.126-3.57z" />
<glyph unicode="&#xe91c;" glyph-name="config" d="M332.682 444.453c0-49.945 25.015-94.73 49.521-121.375 50.146-54.521 142.12-68.856 209.971-34.359 102.199 51.957 128.739 197.045 44.954 280.13-45.622 45.251-78.943 52.625-139.652 52.625-85.205 0-164.793-80.945-164.793-177.010zM0.023 391.308v120.295l112.486 18.742c10.15 1.685 25.841 5.425 37.051 5.679 6.802 29.179 22.599 72.003 40.113 97.219 0.254 0.371 1.123 0.763 1.303 1.748 0.19 0.985 0.837 1.198 1.313 1.738-4.005 5.976-6.993 8.963-11.633 15.828l-76.146 111.617 90.831 89.23c42.338-28.352 82.556-59.999 125.126-88.51 10.722 7.257 7.512 5.404 19.304 11.209 19.812 9.747 34.974 17.788 58.272 24.135 25.799 7.025 21.74 2.289 25.82 29.115l15.787 97.134c5.212 40.388-14.462 30.683 134.121 30.683 11.389-48.906 16.073-103.704 27.462-152.599 18.881-1.568 36.934-10.531 53.208-16.983 15.437-6.124 36.765-19.823 47.497-22.694 10.394 6.961 20.713 15.098 31.806 23.118l92.589 64.661 89.23-90.831c-14.44-21.561-28.744-40.843-43.969-62.839-57.224-82.694-45.579-47.91-19.187-110.187 5.859-13.816 14.060-38.565 17.376-52.815l115.802-18.478c11.919-1.61 25.333-4.979 36.786-5.944 0-28.479-0.021-56.969 0-85.448 0.043-59.978 26.89-36.701-139.779-67.744-17.090-3.179-14.271-5.53-18.636-21.031-27.833-98.734-51.163-58.039-14.303-111.416 11.76-17.037 22.25-31.435 34.54-47.868l33.703-47.243-90.831-89.23c-8.222 2.193-11.093 5.075-17.493 9.969-6.177 4.736-10.256 7.321-16.052 11.411l-62.828 43.99c-39.487 28.733-24.22 21.826-55.115 6.77-15.617-7.618-59.056-25.099-74.344-26.371-9.969-42.814-16.793-103.725-27.462-149.548h-131.229c0 21.794-6.41 47.678-10.023 69.333-14.526 87.101-5.18 77.141-32.029 83.944-22.79 5.774-60.709 23.012-80.023 35.949l-111.957-77.258c-7.629-5.732-5.53-5.7-16.973-8.942l-87.758 89.252c2.723 10.171 36.511 53.759 43.587 63.23 7.84 10.479 14.197 19.24 21.73 30.153 29.719 43.047 24.146 18.933-2.088 79.716-7.533 17.461-12.915 33.257-17.45 52.742-19.41 1.61-46.352 8.274-64.958 11.337-70.996 11.675-82.694 8.063-84.58 24.019z" />
<glyph unicode="&#xe91d;" glyph-name="details" d="M466.605 38.473c26.011-35.638 56.402-64.337 93.518-88.195h-434.65c-69.006 0-125.461 56.456-125.461 125.461v605.623c0 12.047 4.455 22.402 13.203 30.68l234.56 222.106c8.16 7.721 17.819 11.576 29.053 11.576h445.166c69.006 0 125.461-56.456 125.461-125.461v-255.217c-32.522 10.334-66.543 15.667-100.661 15.955v240.268c0 8.621-7.057 15.667-15.667 15.667h-409.838v-143.901c0-36.152-29.577-65.729-65.729-65.729h-145.251v-554.864c0-8.621 7.057-15.667 15.667-15.667h328.239l7.592-11.522 4.776-6.768zM500.744-1.77c0.739-0.75 1.478-1.488 2.227-2.227l-2.227 2.227zM433.965 729.453h197.231c4.605 0 8.374-3.77 8.374-8.374v-54.11c0-4.605-3.77-8.374-8.374-8.374h-197.231c-4.605 0-8.374 3.77-8.374 8.374v54.11c0 4.605 3.77 8.374 8.374 8.374zM783.707 89.905c-44.376 0-27.757 30.338-14.52 81.856 6.746 26.29 28.989 91.184-3.041 112.954-23.516 15.977-55.021 12.432-80.699 4.445l-29.941-10.195c-0.16-7.464-3.288-12.358-3.877-19.426 4.166 2.003 15.035 6.467 20.721 6.467 18.837 0 21.427 1.992 26.899-9.36 9.691-20.067 5.086-21.803-1.52-48.392-2.677-10.762-4.99-20.175-8.085-30.766-13.782-47.15-35.049-117.376 46.165-117.376 15.966 0 59.882 14.285 64.101 17.477 2.528 1.906 6.811 15.152 7.11 18.783-5.065-2.431-16.020-6.479-23.302-6.479zM733.184 350.177c12.765-10.302 21.685-11.64 37.565-11.64 10.698 0 23.088 8.16 28.859 13.878 31.773 31.547-6.693 86.825-52.173 67.71-36.43-15.302-31.547-55.995-14.253-69.949zM743.871 519.008c154.696 0 280.104-125.408 280.104-280.093 0-154.696-125.408-280.093-280.104-280.093s-280.093 125.408-280.093 280.093c0 154.696 125.408 280.093 280.093 280.093zM194.811 520.047h354.089c-28.389-19.725-53.661-43.637-74.896-70.859h-279.194c-4.605 0-8.374 3.77-8.374 8.374v54.11c0 4.605 3.77 8.374 8.374 8.374zM194.811 378.158h236.477c-10.013-22.445-17.691-46.165-22.702-70.859h-213.786c-4.605 0-8.374 3.77-8.374 8.374v54.11c0 4.605 3.77 8.374 8.374 8.374zM194.811 238.562h206.943c0.021-24.298 2.592-47.995 7.432-70.859h-214.375c-4.605 0-8.374 3.77-8.374 8.374v54.11c0 4.605 3.77 8.374 8.374 8.374z" />
<glyph unicode="&#xe91e;" glyph-name="dinning" d="M276.156 704.233c-16.429 0-26.128 8.829-26.128 26.128v225.081c-21.027 0-45.203-2.047-62.294-6.026l-3.916-82.501c-0.787-9.574 0.43-20.387-0.094-30.044-0.525-9.637-2.121-13.847-2.047-26.086 0.294-51.617-9.91-154.065 3.244-193.756 26.748-80.748 110.405-76.916 107.402-127.746-2.184-37.088-20.555-167.721-25.624-207.655-10.246-80.654-14.844-203.497 4.21-279.984 21.71-87.183 87.288-71.73 107.801-43.041 8.136 11.39 15.936 31.314 19.673 46.641 42.201 172.771-35.073 464.335-21.615 499.901 5.732 15.138 19.852 22.172 33.225 31.083 50.074 33.372 69.442 50.368 78.365 112.557 2.698 18.854 0.913 43.66-0.892 59.764-1.564 13.899-0.031 100.453-3.464 123.148l-3.149 93.314c-3.685 33.435 5.994 24.438-35.566 28.742-7.559 0.787-21.038 1.974-28.459 3.695 0-16.534 2.289-229.039-1.281-239.883-7.8-23.651-46.956-18.76-46.956 4.745v237.143c-83.047 0-70.397 6.834-70.334-28.133 0.042-27.073 1.459-204.474-0.766-212.253-2.184-7.58-12.482-14.844-21.332-14.844zM653.969 690.167l-1.963-78.428c0.105-22.434-6.246-77.588-6.047-102.468l-2.572-51.691c-0.829-6.372-2.499-17.616-3.307-24.827-8.892-78.292-26.569-166.934-26.244-245.059 0.042-10.76-2.173-16.524-1.963-23.955 0.22-7.695 1.984-14.844 1.932-26.223-0.178-35.86 0.609-67.627 5.658-102.867 5.585-38.957 13.91-98.112 64.666-98.112 28.196 0 43.072 3.412 56.226 26.17 32.795 56.793 31.902 243.39 12.807 314.165-4.556 16.881-8.545 32.039-14.004 48.3-28.049 83.625 1.407 103.077 48.331 163.144 4.367 5.574 7.38 9.186 11.464 14.666 4.609 6.183 8.052 9.301 12.199 15.936 43.481 69.505 33.729 102.132 33.739 179.28 0.021 91.215-22.989 187.059-94.038 231.527-27.924 17.479-58.567 23.693-96.883 23.693v-263.261z" />
<glyph unicode="&#xe91f;" glyph-name="dmarker" d="M228.211 331.503c-3.595 3.142-9.673 15.492-12.896 20.746l-37.228 62.816c-15.997 27.731-33.335 56.059-49.507 83.85l-49.569 84.067c-16.698 27.679-33.592 55.43-47.581 86.539-15.266 33.921-27.947 64.175-21.488 108.223 5.491 37.465 18.717 65.185 39.7 94.481 30.574 42.687 99.601 89.897 179.846 87.682 58.819-1.628 105.060-19.191 146.841-53.638 45.325-37.362 75.569-101.28 72.973-159.852-1.72-38.804-27.061-86.281-45.871-120.193l-75.291-128.176c-29.441-49.991-59.117-101.516-89.423-151.106-2.874-4.697-6.923-12.515-10.518-15.431zM794.52-63.975c-3.595 3.142-9.673 15.492-12.896 20.746l-37.228 62.816c-15.997 27.731-33.335 56.059-49.507 83.85l-49.569 84.067c-16.698 27.679-33.592 55.43-47.581 86.539-15.266 33.921-27.947 64.175-21.488 108.223 5.491 37.465 18.717 65.185 39.7 94.481 30.574 42.687 99.601 89.897 179.846 87.682 58.819-1.628 105.060-19.191 146.841-53.638 45.325-37.362 75.569-101.28 72.973-159.852-1.72-38.804-27.061-86.281-45.871-120.193l-75.291-128.176c-29.441-49.991-59.117-101.516-89.423-151.106-2.874-4.697-6.923-12.515-10.518-15.431zM773.908 456.3c-59.498-15.142-87.363-94.904-29.451-144.081 32.624-27.71 94.059-24.743 123.871 27.576 8.591 15.070 8.056 29.461 8.056 46.138 0 37.052-44.923 85.004-102.485 70.367zM207.598 851.777c-59.498-15.142-87.363-94.904-29.451-144.081 32.624-27.71 94.059-24.743 123.871 27.576 8.591 15.070 8.056 29.461 8.056 46.138 0 37.052-44.923 85.004-102.485 70.367z" />
<glyph unicode="&#xe920;" glyph-name="dollar" d="M546.033 172.862c31.415 4.121 55.38 15.511 71.874 33.971 16.494 18.269 24.747 42.816 24.747 73.449 0 27.304-7.862 49.885-23.373 67.563-15.511 17.868-39.867 31.816-73.248 41.833v-216.805zM477.689 566.024v195.989c-29.851-3.931-52.632-14.138-68.345-30.834-15.712-16.684-23.564-39.075-23.564-67.161 0-23.373 7.46-43.006 22.19-58.718 14.729-15.902 37.902-28.868 69.718-39.276zM477.689-46.331v93.102c-86.804 5.305-151.609 30.443-194.615 75.414-36.285 37.775-57.334 89.805-63.029 156.089-0.877 10.218 2.23 19.337 9.162 26.892s15.754 11.433 26.015 11.433h85.695c17.498 0 32.133-12.5 34.869-29.788 4.375-27.6 13.049-50.318 26.089-68.207 17.477-23.955 42.816-39.276 75.805-45.753v238.022c-88.96 22.581-152.201 52.041-189.903 88.569-37.511 36.328-56.362 86.213-56.362 149.443 0 70.109 22.391 126.672 66.971 169.487 44.781 43.006 104.482 65.396 179.304 67.362v56.584c0 9.722 7.936 17.657 17.657 17.657h33.042c9.722 0 17.657-7.936 17.657-17.657v-56.584c74.822-3.73 133.149-26.311 174.782-67.552 33.823-33.349 55.454-77.612 64.667-132.885 1.765-10.599-0.94-20.425-7.883-28.625-6.953-8.2-16.198-12.489-26.945-12.489h-86.53c-17.075 0-31.404 11.824-34.658 28.583-4.301 22.158-11.538 40.089-21.778 53.7-14.328 19.041-34.954 29.851-61.666 32.017v-209.736c94.656-29.46 161.236-63.23 199.92-101.144 38.684-37.902 58.126-87.977 58.126-150.045 0-73.248-22.581-131.776-67.563-175.564-44.971-43.598-108.402-69.127-190.495-76.397v-91.929c0-9.722-7.936-17.657-17.657-17.657h-33.042c-9.722 0-17.657 7.936-17.657 17.657z" />
<glyph unicode="&#xe921;" glyph-name="download" d="M175.294 183.446v63.044c0 19.373-15.788 35.161-35.161 35.161h-102.812c-19.373 0-35.161-15.788-35.161-35.161v-46.94c0-144.936 118.6-263.534 263.569-263.534h492.541c144.971 0 263.569 118.6 263.569 263.534v46.94c0 19.373-15.788 35.161-35.161 35.161h-102.812c-19.373 0-35.161-15.788-35.161-35.161v-63.044c0-40.646-33.263-73.944-73.944-73.944h-525.522c-40.681 0-73.944 33.298-73.944 73.944zM809.677 620.080h-124.858v248.802c0 50.105-40.998 91.103-91.103 91.103h-163.43c-50.105 0-91.103-40.998-91.103-91.103v-248.802h-124.788c-12.763 0-23.664-7.243-28.657-18.987-4.958-11.744-2.567-24.613 6.329-33.79l297.606-306.959c6.083-6.259 13.608-9.459 22.328-9.459 8.755 0 16.28 3.2 22.363 9.459l297.642 306.959c8.896 9.177 11.287 22.047 6.329 33.79-4.993 11.744-15.893 18.987-28.657 18.987z" />
<glyph unicode="&#xe922;" glyph-name="drag" d="M391.225 26.609c0 50.035-40.546 90.58-90.58 90.58s-90.58-40.546-90.58-90.58c0-50.035 40.546-90.58 90.58-90.58s90.58 40.546 90.58 90.58zM632.771 441.756c0-50.035 40.546-90.58 90.58-90.58s90.58 40.546 90.58 90.58c0 50.035-40.546 90.58-90.58 90.58s-90.58-40.546-90.58-90.58zM391.225 441.756c0 50.035-40.546 90.58-90.58 90.58s-90.58-40.546-90.58-90.58c0-50.035 40.546-90.58 90.58-90.58s90.58 40.546 90.58 90.58zM632.771 869.391c0-50.035 40.546-90.58 90.58-90.58s90.58 40.546 90.58 90.58c0 50.035-40.546 90.58-90.58 90.58s-90.58-40.546-90.58-90.58zM300.645 778.811c50.035 0 90.58 40.546 90.58 90.58s-40.546 90.58-90.58 90.58c-50.035 0-90.58-40.546-90.58-90.58s40.546-90.58 90.58-90.58zM723.351 117.189c-50.035 0-90.58-40.546-90.58-90.58s40.546-90.58 90.58-90.58c50.035 0 90.58 40.546 90.58 90.58s-40.546 90.58-90.58 90.58z" />
<glyph unicode="&#xe923;" glyph-name="edit" d="M150.566 50.27c-3.863 0-35.207 31.335-35.207 35.207 0 11.006 19.080 69.145 23.905 86.108 7.45 26.181 22.434 65.102 24.498 89.918 12.36-5.937 112.268-26.403 132.014-26.403l26.403-136.417c-29.895-6.963-54.774-15.799-85.515-24.498-18.688-5.291-71.96-23.905-86.108-23.905zM625.828 824.757l260.705-262.959c18.731 12.19 55.198 52.997 74.838 72.637 62.139 62.139 88.32 96.066 25.969 173.38l-113.887 114.945c-34.572 33.398-90.637 53.663-132.12 19.725l-115.506-117.728zM0.954-24.547c0-64.827 76.256-31.8 99.633-24.826l190.26 56.171c112.564 34.858 68.393 12.296 190.863 134.776 55.79 55.79 313.173 303.205 328.94 326.74l-276.156 273.913c-21.006-14.402-364.063-361.883-407.027-404.826-14.116-14.106-28.234-22.318-36.011-43.197l-55.272-191.149c-5.736-20.688-11.862-39.525-18.138-61.070-4.561-15.662-17.080-49.42-17.080-66.52z" />
<glyph unicode="&#xe924;" glyph-name="entry-date" d="M0.008 751.552v-685.313c0-16.277 6.708-36.298 12.641-47.455 6.32-11.722 11.44-17.443 19.455-26.659 22.492-25.705 57.625-38.063 102.185-38.063h679.275c57.589 0 88.732 18.997 113.377 52.928 13.735 18.855 18.961 40.394 20.726 65.11h0.142v2.506c1.377 22.103 0.177 46.713 0 74.079v5.72h-80.787v-82.306c-0.035-4.307-0.707-9.569-5.367-17.831-7.803-13.771-20.691-20.091-42.053-20.091h-691.352c-13.241 0-24.434 2.578-32.131 7.945-6.391 4.449-15.959 15.924-15.959 26.129v557.071h787.498v-120.227h80.152c0 79.551 0.035 158.996 0.070 238.548-0.035 66.134-54.128 120.157-120.298 120.157h-78.139c0-70.159 10.945-119.663-44.454-149.922-28.212-15.43-63.909-7.062-87.002 12.429-9.604 8.192-24.823 32.732-24.823 49.362v88.132h-238.442c0-68.041 14.088-145.226-73.019-157.584-40.924-5.826-83.33 33.049-83.33 73.407v84.177c-65.392 0-116.273 9.428-161.786-32.555-16.736-15.395-36.58-48.232-36.58-79.693zM631.227 903.875v-122.24c0-45.266 80.152-57.836 80.152 10.028v106.21c0 30.119-19.809 43.889-39.688 44.065h-0.847c-19.879-0.142-39.617-13.806-39.617-38.063zM236.508 903.875v-118.25c0-54.023 80.117-57.201 80.117 2.013v114.224c0 52.858-80.117 52.999-80.117 2.013zM787.541 505.095v-76.126h202.391c14.653 0 34.038-19.42 34.038-34.074v-126.23c0-22.81-20.726-38.099-44.065-38.099h-192.363v-76.162c0-21.362-10.805-38.028-32.061-38.028-8.651 0-26.094 16.948-32.59 23.516-6.144 6.25-8.297 7.627-14.935 13.135-5.438 4.555-8.757 9.216-14.088 13.876-6.073 5.332-9.004 6.92-15.042 13.099-21.61 22.068-65.78 57.66-89.121 81.14-6.108 6.179-10.133 8.086-16.101 13.947-6.108 6.144-8.050 7.909-14.795 13.311-9.251 7.345-34.356 34.321-45.796 40.358 3.672 5.508 8.369 10.063 13.735 14.335l75.985 68.288c6.003 6.144 8.157 7.98 14.795 13.241 5.968 4.767 9.428 9.71 15.254 14.865l76.162 68.076c11.794 11.722 36.58 37.639 50.527 37.639 20.726 0 28.071-18.855 28.071-40.111z" />
<glyph unicode="&#xe925;" glyph-name="exchange" d="M326.525 693.661c38.643 29.11 80.050 47.467 121.828 56.46 59.077 12.711 118.884 6.653 172.706-14.258 53.801-20.9 101.628-56.651 136.764-103.291 25.741-34.173 44.713-74.235 54.256-118.608 1.176-5.476 2.489-13.061 3.708-21.27 1.134-7.711 2.225-16.302 3.040-24.501 0.371-3.761 0-7.352-1.091-10.689-1.102-3.326-2.934-6.43-5.488-9.247-2.5-2.765-5.413-4.894-8.654-6.335-3.294-1.483-6.832-2.225-10.54-2.225h-63.292c-2.225 0-4.248-0.562-5.9-1.579s-3.051-2.574-4.036-4.544c-0.996-1.991-1.398-4.046-1.229-5.985 0.17-1.981 0.933-3.919 2.256-5.689l24.141-31.842 44.469-59.288 11.175-15.084c16.355-22.182 44.395-60.178 62.18-82.688 1.144-1.44 2.5-2.543 3.993-3.242 1.483-0.689 3.199-1.027 5.053-0.985 1.833 0.053 3.517 0.488 4.968 1.271 1.452 0.773 2.744 1.938 3.803 3.453 25.031 35.56 79.965 107.539 106.098 141.785l13.252 17.393 21.726 28.95c1.313 1.748 2.055 3.708 2.235 5.699 0.17 2.002-0.233 4.079-1.239 6.038-0.996 1.96-2.436 3.507-4.131 4.534-1.727 1.038-3.761 1.579-5.943 1.546-11.239-0.17-21.154-0.402-29.713-0.603-32.287-0.742-46.397-1.070-54.161 4.417-7.648 5.402-7.606 12.637-7.531 25.444 0.053 8.866 0.127 21.165-2.818 38.198-4.174 24.141-9.078 46.905-15.847 68.97-6.748 22.012-15.412 43.452-27.107 65.082-20.519 37.912-46.206 72.381-76.713 102.189-29.596 28.929-63.769 53.515-102.179 72.678-51.577 25.72-111.935 41.048-172.505 43.717-57.646 2.543-115.462-6.366-166.022-28.654-14.671-6.472-38.579-17.595-60.761-30.201-14.83-8.421-28.908-17.531-38.886-26.313-2.161-1.907-3.432-4.459-3.729-7.108s0.371-5.434 2.065-7.765c7.617-10.498 15.995-21.302 24.512-32.297 8.644-11.154 17.457-22.52 25.889-34.098 0.933-1.282 2.034-2.299 3.273-3.040 1.239-0.752 2.67-1.229 4.248-1.43 1.61-0.212 3.136-0.127 4.512 0.254 1.356 0.381 2.691 1.091 3.94 2.098l3.411 2.68zM558.562 290.571h85.072c6.208 0 11.271 5.063 11.271 11.26v127.189c0 6.197 5.063 11.26 11.26 11.26h18.665c4.841 0 8.962 2.902 10.603 7.457 1.631 4.565 0.297 9.417-3.432 12.5l-172.844 142.58c-4.194 3.464-10.137 3.464-14.332 0l-172.844-142.58c-3.729-3.082-5.063-7.945-3.432-12.5s5.763-7.457 10.603-7.457h18.633c6.197 0 11.26-5.063 11.26-11.26v-127.189c0-6.208 5.063-11.26 11.26-11.26h85.082c6.197 0 11.26 5.063 11.26 11.26v76.618c0 6.208 5.063 11.271 11.26 11.271h48.113c6.208 0 11.271-5.063 11.271-11.271v-76.618c0-6.208 5.063-11.26 11.26-11.26zM167.303 651.491c-1.292 1.706-3.029 3.888-4.862 6.144-4.322 5.371-9.089 11.302-12.426 17.213-0.784-0.879-1.462-1.896-2.235-3.082-0.603-0.953-1.313-2.034-2.584-3.803-47.943-63.589-95.293-127.824-142.919-191.678-1.324-1.758-2.065-3.729-2.235-5.71-0.159-2.012 0.254-4.1 1.271-6.059 1.007-1.949 2.457-3.495 4.174-4.512 1.727-1.017 3.782-1.546 5.985-1.493 16.387 0.402 34.84 0.71 49.85 0.286 16.599-0.466 29.777-2.161 33.749-6.134 6.822-6.822 6.705-28.23 6.61-43.918-0.043-6.134-0.064-11.271 0.275-13.22 9.947-57.615 21.61-96.459 38.907-130.663 17.33-34.3 40.517-64.32 73.366-104.117 8.103-9.046 21.419-19.354 30.698-28.050 3.993-3.739 9.629-8.199 15.412-12.521 5.466-4.12 11.663-8.485 16.483-11.885 54.522-38.388 122.803-62.551 192.886-69.871 68.261-7.129 138.152 1.695 198.627 28.876 14.205 6.388 28.368 13.167 42.16 20.624 13.654 7.383 26.842 15.371 39.141 24.194 2.564 1.864 4.926 3.909 7.256 5.932 1.546 1.335 3.093 2.68 4.767 4.026 2.235 1.811 3.601 4.322 4.004 6.97 0.392 2.648-0.159 5.455-1.758 7.849-7.034 10.593-17.637 24.067-27.775 36.98-8.189 10.413-16.091 20.465-21.906 28.739-0.964 1.377-2.087 2.457-3.337 3.199-1.261 0.752-2.722 1.239-4.375 1.44-1.695 0.201-3.263 0.095-4.639-0.328-1.419-0.424-2.775-1.197-4.046-2.299-0.615-0.615-1.44-1.144-2.087-1.748-4.174-3.368-8.665-6.271-13.294-9.258l-5.36-3.507c-30.105-20.201-57.572-32.584-86.618-39.914-28.929-7.309-59.214-9.576-95.113-9.576-45.158 0-89.022 13.040-128.173 34.311-42.902 23.315-80.146 56.566-107.147 93.366-12.414 16.906-24.438 38.017-34.162 61.174-8.792 20.91-15.773 43.643-19.533 66.639-7.892 48.103-7.098 59.204 9.12 61.873 3.792 0.615 8.019 0.36 13.283 0.064 3.178-0.191 6.78-0.413 10.307-0.455 8.792-0.117 17.584-0.18 26.334-0.191l26.482 0.043c2.151 0 4.153 0.572 5.826 1.61 1.663 1.017 3.062 2.553 4.036 4.502 0.974 1.928 1.377 3.983 1.218 5.964-0.159 1.949-0.879 3.888-2.151 5.614-24.024 32.933-59.807 79.722-90.199 119.456-16.832 22.012-31.969 41.789-43.314 56.916z" />
<glyph unicode="&#xe926;" glyph-name="exit" d="M810.701 959.977h-686.902c-32.29 0-61.642-13.192-82.894-34.443-21.241-21.251-34.443-50.594-34.443-82.883v-789.301c0-32.29 13.192-61.642 34.443-82.883 21.251-21.251 50.594-34.443 82.894-34.443h686.902c32.29 0 61.642 13.192 82.894 34.443 21.241 21.251 34.443 50.594 34.443 82.883v151.279l-9.095-7.819-54.911-33.545v-109.915c0-14.634-6-27.963-15.68-37.642s-23.008-15.69-37.642-15.69h-686.902c-14.634 0-27.963 6.011-37.642 15.69s-15.68 23.008-15.68 37.642v789.301c0 14.634 6 27.963 15.68 37.642s23.008 15.69 37.642 15.69h686.902c14.634 0 27.963-6.011 37.642-15.69s15.68-23.008 15.68-37.642v-100.749l64.005-53.615v154.362c0 32.29-13.192 61.642-34.443 82.883-21.251 21.251-50.594 34.443-82.894 34.443zM694.701 662.583v-100.529h-233.922c-13.223 0-32.876-16.024-32.876-36.732v-154.666c0-10.631 4.579-18.941 10.046-24.753 4.37-4.641 14.634-11.979 22.819-11.979h233.922v-98.595c0-10.245 2.781-19.422 7.338-25.527 2.383-3.209 4.851-5.603 8.143-7.318 19.192-9.952 29.175 1.579 43.945 15.951l117.975 102.42c3.857 3.429 4.788 3.387 8.645 6.826l109.455 95.459c7.161 5.739 23.112 18.512 27.356 24.847-5.572 8.311-9.9 9.429-16.913 15.951l-244.542 211.709c-17.749 15.774-18.711 21.732-36.262 21.732-16.641 0-25.14-17.373-25.14-34.798z" />
<glyph unicode="&#xe927;" glyph-name="facebook" d="M586.866 619.567c0.402 186.069-17.224 167.096 170.412 167.096l-1.621 171.556c-111.164 0-248.389 14.947-327.625-41.875-79.682-57.139-71.832-178.526-71.832-296.958l-89.501-0.095 0.815-172.086 88.686-0.010v-511.162l230.656-0.010v511.152l138.060-0.032 18.718 172.234-156.778 0.19z" />
<glyph unicode="&#xe928;" glyph-name="fav" d="M511.984 729.192c200.438 294.609 617.352 77.593 487.335-266.072-50.009-132.188-231.158-239.304-443.259-418.386-25.666-21.673-62.476-21.673-88.144 0-212.101 179.083-393.249 286.198-443.259 418.386-130.017 343.664 286.886 560.68 487.335 266.072z" />
<glyph unicode="&#xe929;" glyph-name="flag" d="M246.33 935.892v-909.868c0-34.34-8.687-89.99 41.997-89.99 14.611 0 26.396 8.943 32.001 17.996 8.128 13.118 5.996 25.646 5.988 45.997v311.952c214.927 91.675 432.411 196.3 643.912 295.96-214.951 96.777-429.297 194.432-643.912 291.96 0 18.723 1.461 29.662-6.26 41.733-13.277 20.751-39.785 24.136-58.46 8.983-16.91-13.717-2.579-11.337-15.274-14.723z" />
<glyph unicode="&#xe92a;" glyph-name="floor" d="M0.026-63.968h79.995v235.992h235.981v235.992h235.992v235.992h235.992v235.981h235.992v79.995h-315.987v-235.981h-235.992v-235.992h-235.992v-235.992h-235.981v-315.987zM746.294 389.68l-250.556-250.556c-6.875-6.875-6.875-18.092 0-24.967l62.295-62.295c6.875-6.875 18.092-6.875 24.967 0l250.556 250.556c6.875 6.875 18.092 6.875 24.967 0l27.265-27.276c4.968-4.968 11.949-6.515 18.547-4.099 6.61 2.415 10.932 8.092 11.524 15.105l15.009 178.877c0.445 5.318-1.271 10.063-5.021 13.865s-8.474 5.583-13.802 5.222l-181.271-12.616c-7.055-0.487-12.828-4.799-15.306-11.419-2.478-6.631-0.954-13.665 4.057-18.664l26.756-26.756c6.875-6.875 6.875-18.092 0-24.967z" />
<glyph unicode="&#xe92b;" glyph-name="floord" d="M675.241 141.191l250.568 250.532c6.872 6.908 6.872 18.124 0 24.996l-62.312 62.277c-6.872 6.872-18.088 6.872-24.961 0l-250.532-250.568c-6.908-6.872-18.088-6.872-24.996 0l-27.24 27.275c-4.985 4.985-11.964 6.516-18.551 4.131-6.623-2.421-10.932-8.119-11.536-15.133l-15.026-178.855c-0.427-5.341 1.282-10.077 5.021-13.886s8.475-5.591 13.815-5.199l181.276 12.604c7.051 0.499 12.818 4.807 15.311 11.429 2.457 6.623 0.926 13.673-4.059 18.658l-26.777 26.777c-6.872 6.872-6.872 18.088 0 24.961zM0.023-63.977h80.009v235.969h235.969v236.005h236.005v236.005h236.005v235.969h235.969v80.009h-315.978v-236.005h-236.005v-235.969h-235.969v-236.005h-236.005v-315.978z" />
<glyph unicode="&#xe92c;" glyph-name="folder" d="M749.984 133.99c19.844 0 40.075 13.029 51.445 22.597 15.183 12.746 18.997 26.305 26.552 45.407l99.254 266.724c6.461 19.137 16.736 38.946 16.736 55.259-4.484 1.059-4.59 2.013-9.993 2.013h-633.974c-24.823 0-43.465-14.583-57.801-28.176-13.523-12.817-15.218-24.116-21.61-40.429-14.018-35.803-25.917-70.159-39.723-106.245-10.133-26.447-76.868-197.519-76.868-215.138 4.484-1.059 4.59-2.013 10.028-2.013h635.951zM1023.983 530.193v-17.937c-2.401-24.787-13.876-48.656-22.739-73.514-8.086-22.597-15.784-43.077-24.398-65.604-16.984-44.242-31.778-87.814-48.868-131.138-30.366-77.009-32.873-124.429-104.833-167.153-15.254-9.074-46.078-20.833-69.135-20.833h-641.989c-56.106 0-112 56.036-112 109.987v565.969c0 59.566 56.918 112 112 112h207.97c28.283 0 63.804-16.419 80.54-35.486 9.357-10.663 17.019-21.857 22.951-35.026 6.25-13.947 10.522-27.894 10.522-47.49h315.98c33.402 0 62.639-15.395 79.516-32.485 25.281-25.528 36.475-47.844 36.475-85.519 38.875 0 99.748 6.603 130.149-21.857 2.719-2.543 6.708-7.839 10.416-11.582 5.402-5.508 5.226-5.861 8.827-13.135 4.979-9.993 7.627-19.702 8.616-29.2z" />
<glyph unicode="&#xe92d;" glyph-name="gas" d="M194.309 413.885c0-44.364 13.657-94.954 32.959-127.664l26.399-37.859c5.386-6.915 9.608-11.040 14.949-17.179 13.657-15.725 53.767-46.971 71.625-56.869 15.8-8.757 72.39-39.108 90.98-39.517-1.906 8.197-10.082 18.385-14.088 26.076-32.959 63.407-62.211 156.918-62.211 230.923 0 55.308-0.312 78.562 17.814 132.77 23.103 69.094 56.869 121.612 107.168 171.91 9.651 9.651 17.502 20.195 29.609 26.604 0-10.416-2.962-19.096-4.869-29.264-12.849-68.404-13.678-144.51 5.687-210.847 6.269-21.477 26.496-63.159 41.348-73.101 0 24.546-7.669 35.306 5.741 78.583 4.018 12.978 6.624 19.646 13.808 30.363 3.296 4.912 2.337 5.838 8.563 7.507 0.851-38.139 56.116-120.039 72.864-162.055 31.257-78.432 13.678-127.729-28.036-197.986-3.673-6.172-6.323-10.265-10.373-15.725-3.608-4.869-8.757-9.769-10.351-15.746 31.72 2.639 81.189 44.084 102.924 65.722l25.99 32.237c38.192 57.062 55.792 111.853 55.792 185.137 0 55.243-16.35 97.658-32.969 137.692-19.053 45.905-40.336 71.84-62.039 108.622-5.666 9.597-10.459 16.306-16.619 25.537-15.369 23.017-53.821 84.043-63.622 107.028-20.421 47.843-27.53 64.85-27.53 121.041 0 11.438 2.639 35.101 6.021 42.167-24.88-5.795-117.26-74.533-141.408-93.5-40.648-31.935-56.266-49.028-91.992-84.689-36.124-36.060-75.847-90.247-100.534-134.375-36.803-65.798-63.6-147.385-63.6-233.54zM154.156 8.316v-72.282h714.761c0 46.982 6.818 103.646-16.468 132.113-18.784 22.963-35.51 26.507-63.848 26.507v-78.303h-78.303v78.303h-80.306v-78.303h-78.303v78.303h-80.316v-78.303h-78.303v78.303h-80.306v-78.303h-78.303v78.303c-28.564 0-44.235-2.714-62.933-25.408-13.937-16.91-17.384-31.397-17.384-60.929z" />
<glyph unicode="&#xe92e;" d="M61.014 675.062c7.143-3.571 35.711-24.998 42.854-32.14l132.132-99.992 3.571 3.571c3.571 3.571 0 0 3.571 3.571 24.998 64.281 24.998 57.138 67.851 107.134 24.998 32.14 74.994 60.71 114.277 74.994 74.994 28.569 174.986 21.427 249.98-21.427l42.854-28.569c10.713 7.143 28.569 28.569 39.283 35.711l92.85 92.85c7.143 7.143 10.713 14.284 21.427 17.856-10.713 14.284-67.851 53.567-89.278 64.281-153.559 85.707-332.116 89.278-489.247 10.713-10.713-3.571-14.284-7.143-24.998-14.284-32.14-17.856-60.71-42.854-89.278-64.281-35.711-28.569-99.992-110.705-117.848-157.131z" />
<glyph unicode="&#xe92f;" d="M61.014 221.526c10.713-28.569 39.283-71.423 60.71-92.85 71.423-89.278 167.844-153.559 278.549-178.557 153.559-35.711 328.545-3.571 442.821 96.421 10.713 7.143 17.856 14.284 21.427 21.427-7.143 3.571-3.571 0-10.713 7.143-3.571 3.571-7.143 3.571-10.713 7.143-14.284 10.713-28.569 21.427-39.283 32.14l-60.71 46.425c-3.571 3.571-7.143 7.143-10.713 10.713s-7.143 3.571-10.713 7.143l-17.856 14.284c0 0 0 0 0 0s0 0 0 0l-28.569-14.284c-74.994-39.283-189.271-39.283-264.265-7.143-21.427 10.713-39.283 17.856-57.138 32.14-35.711 24.998-64.281 53.567-85.707 92.85-17.856 32.14-21.427 49.996-24.998 57.138-3.571 3.571 0 0-3.571 3.571-3.571-3.571-7.143-7.143-10.713-10.713l-164.272-124.99z" />
<glyph unicode="&#xe930;" d="M696.677 189.386c0 0 0 0 0 0s0 0 0 0l17.856-14.284c3.571-3.571 7.143-3.571 10.713-7.143s7.143-7.143 10.713-10.713l60.71-46.425c10.713-10.713 28.569-21.427 39.283-32.14 3.571-3.571 7.143-3.571 10.713-7.143 7.143-7.143 3.571-3.571 10.713-7.143 10.713 3.571 49.996 49.996 57.138 60.71 7.143 7.143 10.713 14.284 17.856 24.998 71.423 103.563 99.992 267.836 71.423 396.397h-482.104v-199.984h274.978c0-14.284-10.713-39.283-14.284-49.996-21.427-57.138-49.996-71.423-89.278-103.563z" />
<glyph unicode="&#xe931;" d="M61.014 221.526l164.272 124.99c3.571 3.571 7.143 7.143 10.713 10.713 0 7.143-7.143 32.14-7.143 42.854-14.284 78.565 10.713 135.704 10.713 149.988l-132.132 99.992c-7.143 7.143-35.711 28.569-42.854 32.14-10.713-14.284-32.14-85.707-39.283-103.563-21.427-82.137-21.427-167.844 0-249.98 7.143-28.569 14.284-53.567 24.998-78.565 3.571-3.571 7.143-17.856 10.713-24.998z" />
<glyph unicode="&#xe932;" glyph-name="google" d="M235.963 543.582l1.865 2.494c2.385 4.131 0.542 0.293 2.244 4.294 26.272 61.856 23.463 55.547 66.898 107.525 25.957 31.053 75.703 59.059 113.651 73.859 74.64 29.134 174.77 20.948 247.773-19.592l42.893-29.058c9.813 6.571 27.876 26.792 37.612 36.517l92.66 92.66c6.267 6.267 11.071 14.464 20.167 16.903-10.561 15.765-66.562 52.782-86.534 63.906-151.48 84.278-328.104 89.732-484.010 11.709-9.108-4.554-14.659-8.186-23.973-13.097-32.528-17.185-59.829-41.689-88.247-64.372-35.010-27.941-97.604-109.921-115.234-154.158-11.601-14.735-32.788-84.072-37.070-101.269-20.297-81.383-20.297-167.181 0-248.575 6.625-26.575 15.038-53.801 26.206-78.457 2.364-5.237 8.045-19.159 10.865-22.954 11.319-27.573 39.9-69.457 58.582-92.92 69.869-87.694 165.685-151.101 275.421-178.099 150.19-36.94 323.746-4.966 439.382 93.994 9.813 8.392 16.686 12.815 20.265 20.351 10.865 2.852 49.193 51.144 56.067 60.306 6.582 8.772 10.962 14.876 17.207 24.222 69.023 103.274 100.521 263.299 70.628 391.599h-477.493v-198.407h272.548c-0.325-14.29-9.086-37.515-13.986-49.247-22.932-54.907-49.919-71.712-87.813-103.383l-27.54-14.561c-74.879-37.428-187.727-39.098-260.209-6.517-22.487 10.106-37.2 17.294-56.175 31.042-35.411 25.653-63.45 54.647-86.154 92.628-18.551 31.042-22.455 49.843-26.326 56.706-2.44 4.337 0.249 0.824-3.058 4.218 0.575 6.007-6.831 32.051-8.739 42.665-13.672 75.92 9.39 134.642 9.672 147.045z" />
<glyph unicode="&#xe933;" glyph-name="gorvet" d="M132.030 413.317l-2.613 14.477c-6.108-6.461-13.418-11.264-21.997-14.406s-18.537-4.732-29.942-4.732c-24.010 0-42.9 7.874-56.741 23.622-13.806 15.747-20.726 37.357-20.726 64.757 0 28.036 7.697 49.786 23.127 65.251 15.395 15.43 37.004 23.162 64.828 23.162 21.821 0 39.475-5.438 52.858-16.348 13.418-10.84 21.362-26.129 23.869-45.937h-51.092c-2.048 6.708-5.367 11.794-9.958 15.289-4.625 3.495-10.275 5.226-17.054 5.226-10.77 0-18.855-4.095-24.186-12.394-5.367-8.262-8.050-20.585-8.050-37.004 0-15.147 2.683-26.517 8.086-34.002 5.402-7.52 13.629-11.264 24.61-11.264 7.909 0 14.618 1.801 20.091 5.473 5.544 3.672 8.898 8.616 10.24 14.795h-24.293v35.945h73.69v-91.909h-34.744zM60.035 325.998l7.839-1.059c-1.236-4.555-3.531-8.086-6.85-10.593s-7.592-3.778-12.782-3.778c-6.497 0-11.687 2.013-15.501 6.038-3.813 3.99-5.72 9.639-5.72 16.913 0 7.485 1.906 13.311 5.791 17.443 3.849 4.167 8.862 6.214 15.042 6.214 5.932 0 10.805-2.013 14.583-6.073s5.684-9.781 5.684-17.16c0-0.424 0-1.13-0.035-2.013h-33.332c0.318-4.908 1.694-8.651 4.167-11.264 2.506-2.578 5.614-3.884 9.321-3.884 2.79 0 5.155 0.707 7.097 2.189 1.977 1.447 3.531 3.813 4.696 7.027zM35.212 338.144h24.893c-0.318 3.778-1.307 6.568-2.86 8.474-2.401 2.895-5.544 4.379-9.357 4.379-3.495 0-6.391-1.165-8.757-3.495s-3.672-5.438-3.92-9.357zM168.045 324.868l7.52 1.201c0.388-3.001 1.589-5.296 3.495-6.92 1.942-1.589 4.625-2.366 8.086-2.366 3.495 0 6.073 0.707 7.768 2.119s2.543 3.072 2.543 4.979c0 1.694-0.777 3.072-2.295 4.025-1.059 0.671-3.637 1.519-7.732 2.578-5.544 1.377-9.392 2.613-11.546 3.637s-3.778 2.436-4.872 4.237c-1.094 1.801-1.659 3.778-1.659 5.968 0 2.013 0.459 3.849 1.377 5.544s2.154 3.107 3.707 4.237c1.165 0.847 2.79 1.589 4.802 2.189 2.048 0.6 4.202 0.882 6.533 0.882 3.531 0 6.603-0.494 9.216-1.519 2.683-0.989 4.625-2.366 5.896-4.095 1.236-1.731 2.119-4.060 2.613-6.956l-7.415-1.024c-0.353 2.331-1.307 4.132-2.931 5.438s-3.884 1.977-6.815 1.977c-3.46 0-5.968-0.6-7.45-1.731-1.483-1.165-2.224-2.506-2.224-4.060 0-0.954 0.318-1.836 0.918-2.648 0.635-0.812 1.589-1.483 2.931-2.013 0.742-0.282 2.966-0.918 6.673-1.942 5.332-1.412 9.074-2.578 11.193-3.495s3.778-2.224 5.014-3.955c1.201-1.731 1.801-3.92 1.801-6.497 0-2.506-0.707-4.872-2.189-7.097s-3.602-3.955-6.391-5.191c-2.79-1.201-5.932-1.801-9.428-1.801-5.826 0-10.24 1.201-13.311 3.602-3.036 2.401-4.979 5.968-5.826 10.698zM324.252 318.265l1.024-6.673c-2.119-0.459-4.025-0.707-5.684-0.707-2.754 0-4.872 0.459-6.391 1.342-1.519 0.847-2.578 2.013-3.213 3.425-0.6 1.412-0.918 4.414-0.918 8.969v25.775h-5.579v5.826h5.579v11.087l7.592 4.555v-15.642h7.592v-5.826h-7.592v-26.235c0-2.154 0.142-3.531 0.424-4.167 0.247-0.6 0.671-1.094 1.271-1.483 0.6-0.353 1.483-0.53 2.578-0.53 0.847 0 1.942 0.106 3.32 0.282zM454.578 311.521v6.638c-3.46-5.084-8.192-7.592-14.158-7.592-2.613 0-5.084 0.494-7.345 1.483-2.295 1.024-3.99 2.295-5.084 3.813-1.13 1.554-1.906 3.425-2.331 5.614-0.318 1.519-0.459 3.849-0.459 7.097v27.647h7.592v-24.751c0-3.92 0.142-6.603 0.459-7.98 0.459-1.977 1.483-3.531 3.001-4.661 1.554-1.13 3.46-1.731 5.72-1.731s4.379 0.6 6.391 1.731c1.977 1.165 3.39 2.79 4.202 4.767 0.812 2.013 1.236 4.908 1.236 8.721v23.904h7.592v-44.701h-6.815zM595.814 311.521v5.649c-2.86-4.414-7.027-6.603-12.499-6.603-3.566 0-6.85 0.954-9.816 2.931-3.001 1.977-5.296 4.696-6.956 8.227-1.624 3.495-2.471 7.557-2.471 12.111 0 4.449 0.777 8.474 2.224 12.111 1.519 3.637 3.743 6.426 6.708 8.332 2.966 1.942 6.285 2.895 9.958 2.895 2.683 0 5.084-0.565 7.203-1.694 2.083-1.13 3.813-2.648 5.119-4.449v22.174h7.592v-61.685h-7.062zM571.84 333.836c0-5.72 1.201-9.993 3.637-12.817 2.401-2.86 5.261-4.237 8.545-4.237 3.32 0 6.144 1.342 8.474 4.025 2.331 2.719 3.46 6.815 3.46 12.394 0 6.073-1.165 10.558-3.531 13.418s-5.261 4.272-8.721 4.272c-3.39 0-6.214-1.342-8.474-4.095s-3.39-7.062-3.39-12.958zM708.486 364.591v8.616h7.592v-8.616h-7.592zM708.486 311.521v44.701h7.592v-44.701h-7.592zM818.403 333.872c0 8.262 2.331 14.371 6.92 18.36 3.849 3.32 8.545 4.944 14.053 4.944 6.144 0 11.193-2.013 15.077-6.038 6.78-6.956 7.627-21.857 3.283-30.189-1.731-3.283-4.237-5.826-7.557-7.662-3.283-1.836-6.885-2.719-10.805-2.719-6.25 0-11.299 1.977-15.147 6.003-3.884 3.99-5.826 9.781-5.826 17.301zM826.17 333.872c0-5.72 1.271-10.028 3.743-12.853 2.543-2.825 5.684-4.237 9.463-4.237s6.92 1.412 9.428 4.272c2.506 2.86 3.743 7.203 3.743 13.064 0 5.508-1.271 9.675-3.778 12.499-2.506 2.86-5.649 4.272-9.392 4.272-3.778 0-6.92-1.412-9.463-4.237-2.471-2.825-3.743-7.097-3.743-12.782zM959.815 324.868l7.485 1.201c0.424-3.001 1.589-5.296 3.531-6.92 1.906-1.589 4.625-2.366 8.050-2.366 3.495 0 6.108 0.707 7.803 2.119 1.659 1.412 2.506 3.072 2.506 4.979 0 1.694-0.742 3.072-2.26 4.025-1.059 0.671-3.637 1.519-7.768 2.578-5.544 1.377-9.357 2.613-11.51 3.637s-3.778 2.436-4.872 4.237c-1.13 1.801-1.659 3.778-1.659 5.968 0 2.013 0.459 3.849 1.342 5.544 0.918 1.694 2.154 3.107 3.707 4.237 1.201 0.847 2.79 1.589 4.837 2.189s4.202 0.882 6.533 0.882c3.495 0 6.568-0.494 9.216-1.519 2.648-0.989 4.625-2.366 5.861-4.095 1.271-1.731 2.154-4.060 2.613-6.956l-7.415-1.024c-0.318 2.331-1.307 4.132-2.895 5.438-1.624 1.307-3.884 1.977-6.85 1.977-3.46 0-5.932-0.6-7.415-1.731-1.483-1.165-2.224-2.506-2.224-4.060 0-0.954 0.318-1.836 0.918-2.648 0.635-0.812 1.589-1.483 2.895-2.013 0.777-0.282 2.966-0.918 6.673-1.942 5.367-1.412 9.074-2.578 11.228-3.495 2.119-0.918 3.778-2.224 4.979-3.955 1.236-1.731 1.836-3.92 1.836-6.497 0-2.506-0.742-4.872-2.224-7.097s-3.602-3.955-6.356-5.191c-2.79-1.201-5.932-1.801-9.463-1.801-5.791 0-10.24 1.201-13.276 3.602s-4.979 5.968-5.826 10.698zM239.44 497c0-15.889 2.613-27.506 7.945-34.991 5.332-7.415 13.665-11.122 24.963-11.122 11.264 0 19.526 3.672 24.751 11.087 5.261 7.38 7.874 19.067 7.874 35.026 0 16.031-2.613 27.718-7.874 35.098-5.226 7.45-13.488 11.122-24.751 11.122-11.299 0-19.632-3.743-24.963-11.158-5.332-7.45-7.945-19.102-7.945-35.061zM185.099 497.035c0 27.329 7.803 48.903 23.374 64.686 15.607 15.819 36.898 23.728 63.839 23.728 26.87 0 48.091-7.909 63.627-23.728 15.607-15.784 23.374-37.357 23.374-64.686 0-27.223-7.768-48.797-23.374-64.616-15.536-15.854-36.757-23.763-63.627-23.763-26.941 0-48.232 7.909-63.839 23.763-15.571 15.819-23.374 37.392-23.374 64.616zM432.156 508.934h24.434c8.58 0 14.512 1.165 17.76 3.495 3.283 2.295 4.908 6.356 4.908 12.146 0 5.932-1.624 10.063-4.908 12.359-3.248 2.331-9.639 3.495-19.102 3.495h-23.092v-31.496zM377.146 414.27v166.341l82.058 0.388c25.14 0.142 43.113-3.743 53.846-11.264 10.77-7.485 16.136-19.809 16.136-37.004 0-10.205-2.224-18.749-6.638-25.493-4.379-6.78-11.193-12.111-20.409-16.066 9.392-1.942 16.207-5.861 20.409-11.652 4.307-5.791 6.533-14.3 6.85-25.528l0.954-23.374c0-0.177 0.035-0.353 0.070-0.565 0.212-6.673 1.871-10.169 4.802-10.487v-4.908h-54.376c-1.024 4.060-1.731 6.214-2.26 9.181-0.494 3.001-0.742 5.332-0.742 6.991v16.771c0 8.651-1.694 14.724-5.119 18.255-3.39 3.566-9.286 5.296-17.725 5.296h-22.845v-56.494l-55.012-0.388zM539.39 582.024h55.082l28.283-108.258 30.26 108.258h52.928l-56.459-167.682h-53.635l-56.459 167.682zM724.092 414.34v167.682h134.068v-40.111h-80.222v-22.386h67.793v-38.487h-67.793v-25.882h83.506v-40.817h-137.353zM921.822 414.34v123.617h-48.267v44.065h150.417v-44.065h-48.267v-123.617h-53.881z" />
<glyph unicode="&#xe934;" d="M132.030 413.317l-2.613 14.477c-6.108-6.461-13.418-11.264-21.997-14.406s-18.537-4.732-29.942-4.732c-24.010 0-42.9 7.874-56.741 23.622-13.806 15.747-20.726 37.357-20.726 64.757 0 28.036 7.697 49.786 23.127 65.251 15.395 15.43 37.004 23.162 64.828 23.162 21.821 0 39.475-5.438 52.858-16.313 13.418-10.875 21.362-26.164 23.869-45.973h-51.092c-2.048 6.708-5.367 11.794-9.958 15.289-4.625 3.495-10.31 5.261-17.054 5.261-10.77 0-18.855-4.132-24.186-12.429-5.367-8.262-8.050-20.585-8.050-37.004 0-15.147 2.683-26.517 8.086-34.002 5.402-7.52 13.629-11.264 24.61-11.264 7.909 0 14.618 1.801 20.091 5.473 5.544 3.672 8.898 8.616 10.24 14.795h-24.293v35.945h73.69v-91.909h-34.744zM239.44 497c0-15.889 2.613-27.506 7.945-34.991 5.332-7.415 13.665-11.122 24.963-11.122 11.264 0 19.526 3.672 24.751 11.087 5.261 7.38 7.874 19.067 7.874 35.026 0 16.031-2.613 27.718-7.874 35.098-5.226 7.45-13.488 11.122-24.751 11.122-11.299 0-19.632-3.707-24.963-11.158s-7.945-19.102-7.945-35.061zM185.064 497.035c0 27.329 7.839 48.903 23.409 64.686 15.607 15.819 36.898 23.728 63.839 23.728 26.87 0 48.091-7.909 63.627-23.728 15.607-15.784 23.374-37.357 23.374-64.686 0-27.223-7.768-48.797-23.374-64.616-15.536-15.854-36.757-23.763-63.627-23.763-26.941 0-48.232 7.909-63.839 23.763-15.571 15.819-23.409 37.392-23.409 64.616zM432.156 508.934h24.434c8.58 0 14.512 1.165 17.76 3.495 3.283 2.295 4.908 6.356 4.908 12.146 0 5.932-1.624 10.063-4.908 12.359-3.248 2.331-9.639 3.495-19.102 3.495h-23.092v-31.496zM377.146 414.27v166.341l82.058 0.388c25.14 0.142 43.113-3.743 53.846-11.264 10.77-7.485 16.136-19.809 16.136-37.004 0-10.205-2.224-18.749-6.638-25.493-4.379-6.78-11.193-12.111-20.409-16.066 9.392-1.942 16.171-5.861 20.409-11.652 4.307-5.791 6.533-14.3 6.85-25.528l0.954-23.374c0-0.177 0.035-0.353 0.070-0.565 0.212-6.673 1.871-10.169 4.802-10.487v-4.908h-54.376c-0.989 4.060-1.731 6.214-2.26 9.181-0.494 3.001-0.742 5.332-0.742 6.991v16.771c0 8.616-1.694 14.724-5.119 18.255-3.39 3.566-9.286 5.296-17.725 5.296h-22.845v-56.494l-55.012-0.388zM539.39 582.024h55.082l28.283-108.258 30.26 108.258h52.893l-56.424-167.682h-53.635l-56.459 167.682zM724.092 414.34v167.682h134.068v-40.111h-80.222v-22.386h67.793v-38.487h-67.793v-25.882h83.506v-40.817h-137.353zM921.822 414.34v123.617h-48.267v44.065h150.417v-44.065h-48.267v-123.617h-53.881z" />
<glyph unicode="&#xe935;" d="M60.035 325.998l7.839-1.059c-1.236-4.555-3.531-8.086-6.85-10.593s-7.592-3.778-12.782-3.778c-6.497 0-11.687 2.013-15.501 6.038-3.813 3.99-5.72 9.639-5.72 16.913 0 7.485 1.906 13.311 5.791 17.443 3.849 4.167 8.862 6.214 15.042 6.214 5.932 0 10.805-2.013 14.583-6.073s5.684-9.781 5.684-17.16c0-0.424 0-1.13-0.035-2.013h-33.332c0.318-4.908 1.694-8.651 4.167-11.264 2.506-2.578 5.614-3.884 9.321-3.884 2.79 0 5.155 0.707 7.097 2.189 1.977 1.447 3.531 3.813 4.696 7.027zM35.212 338.144h24.893c-0.318 3.778-1.307 6.568-2.86 8.474-2.401 2.895-5.544 4.379-9.357 4.379-3.495 0-6.391-1.165-8.757-3.495s-3.672-5.438-3.92-9.357zM168.045 324.868l7.52 1.201c0.388-3.001 1.589-5.296 3.495-6.92 1.942-1.589 4.625-2.366 8.086-2.366 3.495 0 6.073 0.707 7.768 2.119s2.543 3.072 2.543 4.979c0 1.694-0.777 3.072-2.295 4.025-1.059 0.671-3.637 1.519-7.732 2.578-5.544 1.377-9.392 2.613-11.546 3.637s-3.778 2.436-4.872 4.237c-1.094 1.801-1.659 3.778-1.659 5.968 0 2.013 0.459 3.849 1.377 5.544s2.154 3.107 3.707 4.237c1.165 0.847 2.79 1.589 4.802 2.189 2.048 0.6 4.202 0.882 6.533 0.882 3.531 0 6.603-0.494 9.216-1.519 2.683-0.989 4.625-2.366 5.896-4.095 1.236-1.731 2.119-4.060 2.613-6.956l-7.415-1.024c-0.353 2.331-1.307 4.132-2.931 5.438s-3.884 1.977-6.815 1.977c-3.46 0-5.968-0.6-7.45-1.731-1.483-1.165-2.224-2.506-2.224-4.060 0-0.954 0.318-1.836 0.918-2.648 0.635-0.812 1.589-1.483 2.931-2.013 0.742-0.282 2.966-0.918 6.673-1.942 5.332-1.412 9.074-2.578 11.193-3.495s3.778-2.224 5.014-3.955c1.201-1.731 1.801-3.92 1.801-6.497 0-2.506-0.707-4.872-2.189-7.097s-3.602-3.955-6.391-5.191c-2.79-1.201-5.932-1.801-9.428-1.801-5.826 0-10.24 1.201-13.311 3.602-3.036 2.401-4.979 5.968-5.826 10.698zM324.252 318.265l1.024-6.673c-2.119-0.459-4.025-0.707-5.684-0.707-2.754 0-4.872 0.459-6.391 1.342-1.519 0.847-2.578 2.013-3.213 3.425-0.6 1.412-0.918 4.414-0.918 8.969v25.775h-5.579v5.826h5.579v11.087l7.592 4.555v-15.642h7.592v-5.826h-7.592v-26.235c0-2.154 0.142-3.531 0.424-4.167 0.247-0.6 0.671-1.094 1.271-1.483 0.6-0.353 1.483-0.53 2.578-0.53 0.847 0 1.942 0.106 3.32 0.282zM454.578 311.521v6.638c-3.46-5.084-8.192-7.592-14.158-7.592-2.613 0-5.084 0.494-7.345 1.483-2.295 1.024-3.99 2.295-5.084 3.813-1.13 1.554-1.906 3.425-2.331 5.614-0.318 1.519-0.459 3.849-0.459 7.097v27.647h7.592v-24.751c0-3.92 0.142-6.603 0.459-7.98 0.459-1.977 1.483-3.531 3.001-4.661 1.554-1.13 3.46-1.731 5.72-1.731s4.379 0.6 6.391 1.731c1.977 1.165 3.39 2.79 4.202 4.767 0.812 2.013 1.236 4.908 1.236 8.721v23.904h7.592v-44.701h-6.815zM595.814 311.521v5.649c-2.86-4.414-7.027-6.603-12.499-6.603-3.566 0-6.85 0.954-9.816 2.931-3.001 1.977-5.296 4.696-6.956 8.227-1.624 3.495-2.471 7.557-2.471 12.111 0 4.449 0.777 8.474 2.224 12.111 1.519 3.637 3.743 6.426 6.708 8.332 2.966 1.942 6.285 2.895 9.958 2.895 2.683 0 5.084-0.565 7.203-1.694 2.083-1.13 3.813-2.648 5.119-4.449v22.174h7.592v-61.685h-7.062zM571.84 333.836c0-5.72 1.201-9.993 3.637-12.817 2.401-2.86 5.261-4.237 8.545-4.237 3.32 0 6.144 1.342 8.474 4.025 2.331 2.719 3.46 6.815 3.46 12.394 0 6.073-1.165 10.558-3.531 13.418s-5.261 4.272-8.721 4.272c-3.39 0-6.214-1.342-8.474-4.095s-3.39-7.062-3.39-12.958zM708.486 364.591v8.616h7.592v-8.616h-7.592zM708.486 311.521v44.701h7.592v-44.701h-7.592zM818.403 333.872c0 8.262 2.331 14.371 6.92 18.36 3.849 3.32 8.545 4.944 14.053 4.944 6.144 0 11.193-2.013 15.077-6.038 6.78-6.956 7.627-21.857 3.283-30.189-1.731-3.283-4.237-5.826-7.557-7.662-3.283-1.836-6.885-2.719-10.805-2.719-6.25 0-11.299 1.977-15.147 6.003-3.884 3.99-5.826 9.781-5.826 17.301zM826.17 333.872c0-5.72 1.271-10.028 3.743-12.853 2.543-2.825 5.684-4.237 9.463-4.237s6.92 1.412 9.428 4.272c2.506 2.86 3.743 7.203 3.743 13.064 0 5.508-1.271 9.675-3.778 12.499-2.506 2.86-5.649 4.272-9.392 4.272-3.778 0-6.92-1.412-9.463-4.237-2.471-2.825-3.743-7.097-3.743-12.782zM959.815 324.868l7.485 1.201c0.424-3.001 1.589-5.296 3.531-6.92 1.906-1.589 4.625-2.366 8.050-2.366 3.495 0 6.108 0.707 7.803 2.119 1.659 1.412 2.506 3.072 2.506 4.979 0 1.694-0.742 3.072-2.26 4.025-1.059 0.671-3.637 1.519-7.768 2.578-5.544 1.377-9.357 2.613-11.51 3.637s-3.778 2.436-4.872 4.237c-1.13 1.801-1.659 3.778-1.659 5.968 0 2.013 0.459 3.849 1.342 5.544 0.918 1.694 2.154 3.107 3.707 4.237 1.201 0.847 2.79 1.589 4.837 2.189s4.202 0.882 6.533 0.882c3.495 0 6.568-0.494 9.216-1.519 2.648-0.989 4.625-2.366 5.861-4.095 1.271-1.731 2.154-4.060 2.613-6.956l-7.415-1.024c-0.318 2.331-1.307 4.132-2.895 5.438-1.624 1.307-3.884 1.977-6.85 1.977-3.46 0-5.932-0.6-7.415-1.731-1.483-1.165-2.224-2.506-2.224-4.060 0-0.954 0.318-1.836 0.918-2.648 0.635-0.812 1.589-1.483 2.895-2.013 0.777-0.282 2.966-0.918 6.673-1.942 5.367-1.412 9.074-2.578 11.228-3.495 2.119-0.918 3.778-2.224 4.979-3.955 1.236-1.731 1.836-3.92 1.836-6.497 0-2.506-0.742-4.872-2.224-7.097s-3.602-3.955-6.356-5.191c-2.79-1.201-5.932-1.801-9.463-1.801-5.791 0-10.24 1.201-13.276 3.602s-4.979 5.968-5.826 10.698z" />
<glyph unicode="&#xe936;" glyph-name="help" d="M420.772 260.396c-0.042 1.589-0.064 2.988-0.064 4.228 0 39.773 4.397 72.84 12.957 99.2 8.55 26.36 22.196 51.099 41.161 74.228 14.335 17.111 36.075 36.775 64.745 58.738 28.437 22.196 47.179 38.152 55.73 48.101 18.032 20.353 30.524 38.618 37.23 54.808 6.707 16.422 10.172 34.221 10.172 53.653 0 42.782-12.025 76.082-35.842 100.133-24.050 23.817-57.35 35.842-100.133 35.842-43.015 0-76.782-14.335-101.288-43.015-19.526-22.832-32.008-52.985-37.442-90.48-2.543-17.481-17.28-30.228-34.942-30.228h-123.187c-10.034 0-18.679 3.708-25.597 10.987s-10.182 16.093-9.663 26.117c4.164 81.665 24.443 150.945 89.537 212.184 60.295 56.714 141.527 85.098 243.735 85.098 104.296 0 187.308-26.826 249.054-80.245 61.747-53.653 92.494-125.337 92.494-215.288 0-31.679-3.465-60.126-10.405-85.098-7.173-25.205-17.81-48.101-32.378-68.909-18.499-26.127-47.179-54.575-85.797-84.865-38.618-30.524-61.98-49.489-70.075-56.65-17.344-16.655-29.602-34.221-36.997-52.731-6.601-16.199-10.256-34.814-11.125-56.302-0.763-18.933-16.326-33.882-35.281-33.882h-111.331c-19.124 0-34.793 15.267-35.291 34.391zM412.38-28.675v127.795c0 19.442 15.86 35.302 35.302 35.302h129.183c19.442 0 35.302-15.86 35.302-35.302v-127.795c0-19.442-15.86-35.302-35.302-35.302h-129.183c-19.442 0-35.302 15.86-35.302 35.302z" />
<glyph unicode="&#xe937;" glyph-name="house-info" d="M511.954 10.288h366.094c17.255 0 31.323 14.077 31.323 31.323v353.648c0 17.255 14.067 31.323 31.323 31.323h51.894c13.463 0 24.925 8.061 29.48 20.73 4.544 12.679 0.837 26.185-9.555 34.755l-480.58 396.432c-11.695 9.639-28.177 9.639-39.871 0l-480.58-396.432c-10.392-8.57-14.099-22.075-9.555-34.755 4.555-12.669 16.016-20.73 29.48-20.73h51.799c17.245 0 31.323-14.067 31.323-31.323v-353.648c0-17.255 14.077-31.323 31.323-31.323h366.094zM454.542 245.074c-0.021 0.858-0.032 1.631-0.032 2.299 0 21.641 2.394 39.627 7.044 53.97s12.076 27.796 22.393 40.379c7.796 9.311 19.628 19.999 35.221 31.958 15.476 12.076 25.666 20.762 30.316 26.164 9.809 11.070 16.61 21.006 20.253 29.818 3.644 8.93 5.53 18.622 5.53 29.193 0 23.272-6.536 41.386-19.501 54.478-13.082 12.955-31.206 19.501-54.478 19.501-23.399 0-41.767-7.796-55.103-23.399-10.624-12.414-17.414-28.822-20.37-49.224-1.377-9.512-9.396-16.439-19.003-16.439h-67.020c-5.455 0-10.158 2.013-13.919 5.974s-5.54 8.749-5.254 14.205c2.266 44.426 13.294 82.115 48.705 115.429 32.795 30.856 76.999 46.29 132.599 46.29 56.734 0 101.902-14.597 135.491-43.653 33.589-29.183 50.315-68.185 50.315-117.123 0-17.235-1.885-32.711-5.656-46.301-3.909-13.707-9.692-26.164-17.616-37.488-10.063-14.216-25.666-29.691-46.672-46.173-21.006-16.61-33.717-26.916-38.123-30.825-9.438-9.057-16.101-18.611-20.126-28.685-3.591-8.813-5.583-18.94-6.049-30.634-0.413-10.296-8.887-18.431-19.194-18.431h-60.569c-10.402 0-18.929 8.305-19.204 18.707zM449.976 87.815v69.52c0 10.582 8.633 19.204 19.204 19.204h70.282c10.571 0 19.204-8.633 19.204-19.204v-69.52c0-10.582-8.633-19.204-19.204-19.204h-70.282c-10.571 0-19.204 8.633-19.204 19.204z" />
<glyph unicode="&#xe938;" glyph-name="house" d="M641.501 10.288h236.556c17.255 0 31.323 14.077 31.323 31.323v353.648c0 17.255 14.067 31.323 31.323 31.323h51.894c13.463 0 24.925 8.061 29.48 20.73 4.544 12.679 0.837 26.185-9.555 34.755l-480.58 396.432c-11.695 9.639-28.177 9.639-39.871 0l-480.58-396.432c-10.392-8.57-14.099-22.075-9.555-34.755 4.555-12.669 16.016-20.73 29.48-20.73h51.799c17.245 0 31.323-14.067 31.323-31.323v-353.648c0-17.255 14.077-31.323 31.323-31.323h236.556c17.245 0 31.323 14.077 31.323 31.323v213.041c0 17.245 14.077 31.323 31.323 31.323h133.764c17.255 0 31.323-14.077 31.323-31.323v-213.041c0-17.255 14.077-31.323 31.323-31.323z" />
<glyph unicode="&#xe939;" glyph-name="housestatus" d="M878.062 10.285c17.255 0 31.322 14.077 31.322 31.322v353.646c0 17.255 14.067 31.322 31.322 31.322h51.894c13.463 0 24.925 8.061 29.479 20.73 4.544 12.679 0.837 26.185-9.555 34.755l-480.588 396.429c-11.695 9.639-28.166 9.639-39.871 0l-480.588-396.429c-10.392-8.57-14.099-22.075-9.555-34.755 4.555-12.668 16.016-20.73 29.479-20.73h51.798c17.245 0 31.322-14.067 31.322-31.322v-353.646c0-17.255 14.077-31.322 31.322-31.322h236.555c17.223 0 241.829 0 259.054 0h236.586zM507.945 244.89c17.901-2.754 46.989-18.219 78.131-34.808 21.873-11.652 42.476-24.035 55.304-31.428l-0.858 4.142c-0.826 4.004-1.621 7.775-2.14 10.942l-3.591 20.295c-5.964 33.907-16.641 94.476-16.641 103.416v13.739l104.083 102.505-114.305 16.641c-3.262 0.466-5.667 0.752-7.542 0.953-6.8 0.773-10.635 1.229-16.842 4.057h-0.127c-12.457 5.741-14.713 10.487-19.681 21.058l-0.053-0.021-0.784 1.663 0.063 0.032c-2.203 4.587-4.703 9.374-7.193 14.13-4.205 8.030-8.4 16.016-11.821 23.929l-35.952 72.75-0.053-0.116v-343.89zM507.945 602.646c0.562 0.201 0.71 0.339 0 0.392v-0.392zM507.945 636.183c18.495-0.54 21.228-15.126 28.515-30.306l37.498-75.875c5.477-12.849 12.711-25.051 18.833-37.858 4.28-8.919 1.928-6.515 19.798-9.089l123.245-17.944c12.361-1.706 33.112-2.722 33.112-23.59 0-9.873-6.324-14.342-11.504-19.522l-106.17-104.56c0-8.061 17.531-105.153 19.713-118.277 3.464-20.847 17.16-60.356-16.504-60.356-8.517 0-135.289 71.108-146.539 74.233-0.35 0.096-0.593 0.138-0.71 0.096l-118.743-61.85c-7.161-3.792-20.306-12.478-28.166-12.478-11.684 0-21.386 8.781-21.386 20.317 0 12.161 17.795 109.072 19.554 119.506 7.754 46.501 11.196 34.256-9.131 54.584l-15.455 14.491c-7.965 6.662-28.113 28.791-38.006 37.943-14.957 13.834-48.959 41.757-48.959 55.866 0.096 0.148-0.911 11.567 10.445 18.452 5.964 3.612 15.254 4.089 23.611 5.275l124.199 18.050c18.484 2.563 13.633 0.085 18.241 9.565 17.382 35.761 40.443 79.423 56.343 113.744 5.561 12.002 10.423 29.596 27.096 29.596l1.059-0.021z" />
<glyph unicode="&#xe93a;" glyph-name="info" d="M516.897 752.13c35.919-28.984 61.010-32.745 105.696-32.745 30.098 0 64.95 22.96 81.191 39.045 89.396 88.761-18.827 244.293-146.789 190.505-102.511-43.045-88.761-157.544-40.11-196.805zM659.051 19.826c-124.859 0-78.101 85.359-40.853 230.304 18.984 73.97 81.563 256.556-8.552 317.806-66.16 44.95-154.801 34.972-227.058 12.516l-84.245-28.685c-0.455-21.007-9.246-34.768-10.911-54.662 11.726 5.63 42.303 18.205 58.304 18.205 52.998 0 60.292 5.605 75.682-26.325 27.272-56.459 14.312-61.346-4.288-136.154-7.533-30.289-14.049-56.771-22.744-86.557-38.781-132.656-98.606-330.251 129.889-330.251 44.925 0 168.479 40.194 180.36 49.178 7.114 5.366 19.164 42.625 20.001 52.854-14.253-6.839-45.069-18.228-65.574-18.228l-0.012 0.036z" />
<glyph unicode="&#xe93b;" glyph-name="instagram" d="M511.989 683.996c33.557 0 73.383-10.084 96.687-21.301 55.885-26.915 91.051-62.389 117.998-117.987 6.568-13.547 10.412-27.402 14.522-43.471 2.013-7.88 3.739-18.049 4.47-25.527 2.606-26.438 2.256-25.029 0.159-53.544-0.551-7.394-2.394-18.568-4.216-25.781-24.881-98.645-103.55-172.347-201.932-182.050-41.68-4.11-85.405 0.095-124.385 18.992-27.476 13.314-49.498 27.889-69.803 48.195-35.347 35.357-62.103 87.238-67.187 138.801-2.648 26.883-3.104 50.939 4.057 79.326 14.956 59.295 45.229 105.764 94.462 141.524 34.171 24.817 88.35 42.824 135.168 42.824zM747.974 803.985v-81.995c0-20.433 17.562-37.994 37.994-37.994h81.995c20.443 0 37.994 17.562 37.994 37.994v81.995c0 20.443-17.552 37.994-37.994 37.994h-81.995c-20.433 0-37.994-17.552-37.994-37.994zM435.989 575.997l29.997 2.002c48.418 0 94.812-76.339 44.53-126.525-54.846-54.73-128.526-3.326-128.526 42.528l2.002 29.997c-17.191-12.594-22.001-61.276-22.001-85.988 0-68.733 68.51-139.988 141.99-139.988 29.732 0 46.076 0.869 72.006 13.982 34.129 17.255 53.469 35.209 71.328 70.671 28.186 55.98 15.465 127.669-27.815 170.843-33.917 33.832-67.6 44.477-117.511 44.477-18.749 0-58.925-12.35-66.001-22.001zM235.996 605.994h-155.993v167.994c0 54.741 51.256 105.997 105.997 105.997h651.965c54.741 0 105.997-51.256 105.997-105.997v-167.994h-155.993c-5.371 0-14.395 18.547-23.43 30.569-3.919 5.222-7.013 9.956-11.153 14.85l-16.662 17.34c-34.955 37.803-81.307 63.808-129.977 80.014-44.985 14.988-96.666 18.674-144.203 10.656-57.357-9.67-121.928-37.487-163.047-78.934l-14.13-13.876c-24.966-27.614-20.846-20.634-41.86-54.137-2.574-4.099-1.653-6.472-7.531-6.472zM0.011 777.981v-659.952c0-92.767 89.219-181.986 181.997-181.986h659.962c92.778 0 181.997 89.219 181.997 181.986v659.952c0 92.767-89.219 181.986-181.997 181.986h-659.962c-92.778 0-181.997-89.219-181.997-181.986z" />
<glyph unicode="&#xe93c;" glyph-name="ivoox" d="M417.553-38.161h190.157c3.994 179.2 0.307 363.076 0.307 542.822 0 27.989 3.311 112.538-2.731 133.427-11.742 40.311-40.277 46.046-88.132 46.046-90.112 0-180.224 0-270.336 0l1.195-184.047h169.199l0.341-538.249zM504.218 941.261c57.924 0 104.858-46.967 104.858-104.858 0-57.924-46.933-104.892-104.858-104.892s-104.858 46.967-104.858 104.892c0 57.89 46.933 104.858 104.858 104.858z" />
<glyph unicode="&#xe93d;" glyph-name="link" d="M0 183.061c0-55.205 4.846-74.763 26.673-121.016l16.384-26.098c24.621-32.823 46.698-54.238 84.085-73.709 57.922-30.173 120.755-32.856 183.565-15.015 21.371 6.063 36.908 14.57 54.814 24.088 28.054 14.907 37.332 26.945 54.781 42.319 48.338 42.569 119.701 117.701 169.919 167.93 6.508 6.497 16.221 12.386 18.71 21.741-35.822-23.99-122.927-7.149-152.143 11.734-4.857 3.14-6.008 4.954-11.723 6.476-30.020-20.111-106.89-118.299-151.046-140.268-12.115-6.030-20.306-9.865-35.899-12.658-13.028-2.336-28.706-2.695-43.21-0.359-32.291 5.215-67.222 34.681-78.478 67.179-13.886 40.081-3.368 82.487 19.014 112.725 15.504 20.937 159.423 161.813 193.018 195.397 30.781 30.781 69.656 72.057 127.545 63.876 34.529-4.878 41.994-9.115 66.755-30.401 65.342-56.161 152.469 31.845 87.92 96.004-13.212 13.136-24.49 21.708-41.103 31.736-87.16 52.587-197.875 41.744-278.591-18.536-48.273-36.051-193.866-188.194-244.779-240.748-8.323-8.594-17.254-22.208-24.142-32.508-22.762-33.997-42.070-87.344-42.070-129.881zM412.699 692.861c7.475 1.989 10.343 6.008 21.752 8.594 73.741 16.754 140.214-25.761 144.135-26.804 11.56 7.747 37.245 36.235 49.055 48.045 26.119 26.119 71.351 76.979 101.98 92.223 66.777 33.236 136.944 5.432 157.598-54.162 26.695-77.098-30.118-126.209-66.374-162.476-23.577-23.577-171.993-177.513-197.081-191.334-19.904-10.963-47.99-22.176-76.109-18.188-34.529 4.878-41.994 9.115-66.755 30.401-65.353 56.161-152.469-31.845-87.92-96.004 13.201-13.136 24.49-21.708 41.103-31.736 65.027-39.234 155.511-45.242 224.776-12.615 22.013 10.365 52.696 26.478 69.993 43.286l171.907 169.973c9.93 9.941 18.384 18.384 28.325 28.325 33.204 33.193 50.403 55.966 71.677 98.253 41.32 82.129 25.598 189.258-32.312 257.708-4.672 5.519-9.887 10.050-15.091 15.254-64.419 64.441-151.209 82.639-240.4 57.313-29.738-8.443-77.87-34.312-100.502-57.292-7.725-7.845-13.756-11.658-21.241-19.232-18.547-18.753-172.015-169.854-178.513-179.556z" />
<glyph unicode="&#xe93e;" glyph-name="linkedin" d="M228.5 628.792h-227.681v-683.043h227.681v683.043zM114.677 950.245c63.303 0 114.61-51.343 114.61-114.646s-51.308-114.61-114.61-114.61c-63.303 0-114.646 51.308-114.646 114.61s51.343 114.646 114.646 114.646zM338.025 628.792v-683.043h230.581v380.423c0 115.219 88.115 165.452 163.949 135.162 45.257-18.117 60.832-79.093 60.832-129.398v-386.187h230.581v371.758c0 96.852-15.253 175.084-56.75 231.476-75.010 101.863-226.714 121.091-324.639 60.582-42.249-26.101-63.303-68.709-73.972-75.906v95.132h-230.581z" />
<glyph unicode="&#xe93f;" glyph-name="mail" d="M115.589 803.984h792.807c63.577 0 115.578-52.011 115.578-115.578v-480.812c0-63.566-52.001-115.578-115.578-115.578h-792.807c-63.577 0-115.578 52.011-115.578 115.578v480.812c0 63.566 52.001 115.578 115.578 115.578zM511.982 431.304c-5.295 2.807-7.89 4.84-13.768 7.827l-237.637 127.746c-5.655 2.817-7.435 4.311-12.603 7.202-5.317 2.965-8.939 4.226-14.213 7.382l-138.189 74.199c-6.556 4.131-3.516 6.704-6.566 2.436l248.958-193.833c5.518-4.501 12.106-7.869 15.642-13.164-5.772-8.621-52.404-51.704-68.935-71.467l-69.253-69.349c-5.497-5.56-7.636-9.606-13.45-15.346l-67.961-68.83c4.957 1.324 12.709 7.72 17.486 11.311l235.222 167.97c6.937 4.787 9.839 7.583 17.284 11.523l54.723-35.278c18.195-12.19 35.585-23.077 53.272-34.918 18.015 12.063 36.041 23.364 54.352 35.649l53.643 34.558c15.462-8.187 216.55-154.467 259.973-184.608 3.315-2.298 1.186-0.435 4.014-3.177 2.87-2.807 1.324-5.222 4.194-1.197l-217.789 223.191c3.495 5.232 11.12 9.436 16.617 13.99l49.565 38.636c11.205 9.267 21.965 16.744 33.382 26.011 5.867 4.766 10.104 8.165 16.151 12.645 6.206 4.607 9.977 7.985 16.193 12.603 11.798 8.748 21.806 17.294 33.435 25.958l66.605 52.191c5.635 4.501 10.548 8.081 16.193 12.603 14.742 11.788 19.095 10.972 14.647 14.149-1.843-1.61-3.474-3.061-6.1-4.692l-139.11-75.078c-4.808-2.68-8.716-4.162-13.090-6.693l-79.251-43.147c-4.374-2.267-8.441-3.939-13.207-6.598-5.158-2.902-6.937-4.374-12.592-7.202l-132.046-71.35c-4.755-2.669-8.822-4.332-13.196-6.609-4.808-2.5-7.763-4.67-12.582-7.223z" />
<glyph unicode="&#xe940;" glyph-name="map" d="M1023.973 959.231v-905.963c-57.694-30.535-127.714-63.858-187.997-94.004-38.815-19.413-42.201-27.61-62.558-18.574-22.421 9.958-43.355 18.322-65.985 28.019l-162.295 69.696c-6.52 2.725-27.83 12.945-32.966 12.684-6.195-0.304-160.115-78.794-187.494-92.484-36.562-18.27-42.631-27.578-63.364-18.030-22.243 10.242-43.313 18.48-65.86 28.145-22.107 9.476-41.971 18.354-64.298 27.704l-97.998 41.992c-8.061 3.386-25.786 12.254-33.145 12.862v907.965c7.977-1.855 17.348-6.856 24.287-9.717 8.322-3.438 15.975-6.803 23.773-10.231 15.901-6.96 31.415-13.626 47.662-20.335l142.83-61.153c32.715-14.015 31.981-18.711 46.090-11.3l91.352 44.748c-2.4-10.304-32.002-57.946-32.002-105.996-14.046-3.281-41.666-24.675-67.883-23.92-38.92 1.111-175.178 74.172-196.1 75.911v-347.987c20.137-0.45 56.908-6.772 77.306-12.694 56.405-16.394 75.429-31.603 115.167-64.832 13.228-11.058 65.618 5.503 102.883-75.105l15.304-30.692c13.773-28.051 41.845-58.554 75.345-58.533 21.708 0.010 26.949 17.065 74.591 10.482 28.48-3.931 50.451-8.176 71.415-18.574 13.836-6.877 29.937-15.87 41.467-26.53 22.181-20.493 34.224-35.042 49.162-62.83l14.025-29.979c5.209-11.531 7.401-21.174 11.069-32.935 9.79-31.394 4.004-42.034 19.559-48.438 6.32-2.599 9.455-3.92 15.535-6.467 15.084-6.31 17.778-11.981 32.495-4.267 20.985 11.006 139.811 71.352 148.637 73.406v727.965c-18.166-4.235-90.796-48.731-105.996-50 0 35.052-15.765 69.276-16.006 80l201.991 99.989zM585.242 355.448c-3.291 2.883-8.868 14.204-11.824 19.025l-34.13 57.599c-14.675 25.42-30.566 51.394-45.399 76.876l-45.45 77.086c-15.304 25.388-30.797 50.828-43.616 79.35-14.004 31.1-25.629 58.847-19.706 99.234 5.042 34.36 17.159 59.769 36.404 86.635 28.040 39.14 91.331 82.432 164.905 80.398 53.931-1.489 96.331-17.599 134.643-49.183 41.551-34.266 69.287-92.872 66.908-146.572-1.573-35.576-24.812-79.12-42.055-110.21l-69.036-117.537c-26.991-45.839-54.203-93.082-81.991-138.553-2.641-4.309-6.341-11.478-9.643-14.151zM566.353 832.48c-54.56-13.878-80.094-87.013-27.002-132.107 29.916-25.409 86.247-22.684 113.585 25.283 7.882 13.815 7.39 27.012 7.39 42.306 0 33.983-41.195 77.945-93.972 64.529z" />
<glyph unicode="&#xe941;" glyph-name="maximize" d="M54.882 959.988h969.084v-1023.955h-1023.955v1023.955h54.871zM914.215 850.237h-804.452v-804.452h804.452v804.452z" />
<glyph unicode="&#xe942;" glyph-name="mediadown" d="M183.963 589.882l305.841-423.428c7.035-9.728 17.418-14.971 29.43-14.838 12.001 0.123 22.282 5.591 29.102 15.473l292.15 423.428c7.752 11.233 8.581 24.894 2.232 36.987s-18.053 19.169-31.714 19.169h-598.002c-13.793 0-25.621-7.24-31.898-19.518-6.277-12.288-5.222-26.112 2.867-37.284z" />
<glyph unicode="&#xe943;" glyph-name="mediaff" d="M570.62 787.346l437.996-316.371c10.069-7.274 15.489-18.009 15.358-30.442-0.131-12.42-5.785-23.051-16.011-30.103l-437.996-302.215c-11.623-8.019-25.753-8.881-38.265-2.312s-19.838 18.676-19.838 32.806v297.63c-1.228-10.618-6.7-19.668-15.75-25.91l-437.996-302.215c-11.623-8.019-25.753-8.881-38.265-2.312s-19.838 18.676-19.838 32.806v618.585c0 14.274 7.483 26.498 20.177 32.989 12.707 6.49 27.007 5.407 38.565-2.951l437.996-316.371c8.684-6.269 13.909-15.123 15.097-25.414v311.748c0 14.274 7.483 26.498 20.19 32.989s27.007 5.407 38.565-2.951z" />
<glyph unicode="&#xe944;" glyph-name="medianext" d="M146.756 949.404l647.197-467.484c14.524-10.487 22.492-25.888 22.679-43.684v480.851c0 22.492 18.391 40.882 40.882 40.882h65.659c22.492 0 40.898-18.391 40.898-40.882v-942.169c0-22.492-18.406-40.898-40.898-40.898h-65.659c-22.492 0-40.882 18.406-40.882 40.898v460.033c-0.188-18.359-8.546-34.058-23.65-44.482l-647.197-446.558c-17.185-11.848-38.049-13.116-56.534-3.412s-29.315 27.593-29.315 48.474v914.042c0 21.083 11.066 39.16 29.832 48.755 18.782 9.595 39.912 7.982 56.988-4.366z" />
<glyph unicode="&#xe945;" glyph-name="mediapause" d="M345.829 782.959h42.957c14.715 0 26.747-12.042 26.747-26.757v-616.403c0-14.715-12.032-26.757-26.747-26.757h-42.957c-14.715 0-26.757 12.042-26.757 26.757v616.403c0 14.715 12.042 26.757 26.757 26.757zM635.214 782.959h42.957c14.715 0 26.747-12.042 26.747-26.757v-616.403c0-14.715-12.032-26.757-26.747-26.757h-42.957c-14.715 0-26.757 12.042-26.757 26.757v616.403c0 14.715 12.042 26.757 26.757 26.757z" />
<glyph unicode="&#xe946;" glyph-name="mediaplay" d="M268.455 949.392l647.198-467.471c14.875-10.751 22.878-26.622 22.687-44.974s-8.55-34.055-23.661-44.482l-647.198-446.549c-17.179-11.847-38.055-13.12-56.542-3.409-18.485 9.701-29.304 27.606-29.304 48.483v914.043c0 21.090 11.065 39.151 29.83 48.751 18.788 9.59 39.91 7.98 56.988-4.37z" />
<glyph unicode="&#xe947;" glyph-name="mediaprevious" d="M877.266 949.431l-647.225-467.505c-14.526-10.487-22.493-25.889-22.68-43.686v480.856c0 22.493-18.392 40.884-40.884 40.884h-65.662c-22.493 0-40.9-18.392-40.9-40.884v-942.194c0-22.493 18.408-40.9 40.9-40.9h65.662c22.493 0 40.884 18.408 40.884 40.9v460.054c0.188-18.361 8.546-34.059 23.65-44.484l647.21-446.577c17.187-11.849 38.051-13.117 56.537-3.412s29.317 27.595 29.317 48.475v914.067c0 21.084-11.066 39.162-29.817 48.757-18.783 9.595-39.913 7.983-56.991-4.367z" />
<glyph unicode="&#xe948;" glyph-name="mediarw" d="M453.379 787.326l-438.015-316.384c-10.071-7.271-15.481-18.017-15.349-30.434s5.79-23.045 16.009-30.096l438.015-302.223c11.625-8.019 25.757-8.884 38.262-2.302 12.504 6.567 19.834 18.676 19.834 32.808v297.634c1.217-10.614 6.699-19.673 15.745-25.918l438.015-302.223c11.625-8.019 25.757-8.884 38.262-2.302 12.519 6.567 19.834 18.676 19.834 32.808v618.607c0 14.278-7.491 26.504-20.186 32.999-12.71 6.494-27.003 5.409-38.57-2.961l-438.015-316.384c-8.679-6.274-13.897-15.129-15.099-25.405v311.766c0 14.278-7.491 26.504-20.186 32.999-12.71 6.494-27.003 5.409-38.57-2.961z" />
<glyph unicode="&#xe949;" glyph-name="mediaup" d="M183.963 306.118l305.841 423.428c7.035 9.728 17.418 14.971 29.43 14.838 12.001-0.123 22.282-5.591 29.102-15.473l292.15-423.428c7.752-11.233 8.581-24.894 2.232-36.987s-18.053-19.169-31.714-19.169h-598.002c-13.793 0-25.621 7.24-31.898 19.518-6.277 12.288-5.222 26.112 2.867 37.284z" />
<glyph unicode="&#xe94a;" glyph-name="menu" d="M988.678 831.587h-953.363c-19.448 0-35.306-15.857-35.306-35.306 0-22.139 0-44.288 0-66.428 0-19.448 15.857-35.306 35.306-35.306h953.363c19.448 0 35.306 15.857 35.306 35.306 0 22.139 0 44.288 0 66.428 0 19.448-15.857 35.306-35.306 35.306zM35.314 201.452h953.363c19.448 0 35.306-15.857 35.306-35.306 0-22.139 0-44.288 0-66.428 0-19.448-15.857-35.306-35.306-35.306h-953.363c-19.448 0-35.306 15.857-35.306 35.306 0 22.139 0 44.288 0 66.428 0 19.448 15.857 35.306 35.306 35.306zM35.314 516.514h953.363c19.448 0 35.306-15.857 35.306-35.306 0-22.139 0-44.288 0-66.428 0-19.448-15.857-35.306-35.306-35.306h-953.363c-19.448 0-35.306 15.857-35.306 35.306 0 22.139 0 44.288 0 66.428 0 19.448 15.857 35.306 35.306 35.306z" />
<glyph unicode="&#xe94b;" glyph-name="minimize" d="M0.013 502.886h1023.955v-109.761h-1023.955v109.761z" />
<glyph unicode="&#xe94c;" glyph-name="minus" d="M511.998 370.505h-478.496c-18.407 0-33.49 15.063-33.49 33.48v88.044c0 18.417 15.073 33.48 33.49 33.48h956.991c18.407 0 33.48-15.073 33.48-33.48v-88.044c0-18.417-15.073-33.48-33.48-33.48h-478.496z" />
<glyph unicode="&#xe94d;" glyph-name="nohouse" d="M628.098 51.42h212.096c15.473 0 28.089 12.616 28.089 28.089v317.070c0 15.473 12.616 28.078 28.078 28.078h46.522c12.074 0 22.355 7.23 26.43 18.597 4.086 11.357 0.758 23.47-8.561 31.161l-180.413 148.833-324.638-324.638h116.237c15.473 0 28.078-12.627 28.078-28.089v-191.002c0-15.473 12.616-28.089 28.078-28.089zM1023.978 959.989l-1023.977-1023.977v120.692l155.663 155.653v184.213c0 15.473-12.616 28.078-28.089 28.078h-46.44c-12.074 0-22.345 7.23-26.43 18.597-4.086 11.357-0.748 23.47 8.561 31.161l430.87 355.42c10.486 8.643 25.262 8.643 35.738 0l133.308-109.961 240.135 240.115h120.651zM208.524 51.42h187.315c15.463 0 28.078 12.616 28.078 28.089v187.315l-215.394-215.404z" />
</font>
</defs>
</svg>
